<svg xmlns="http://www.w3.org/2000/svg" viewBox="0 0 771.81 771.81"><defs><style>.cls-1{fill:#ea0c0c;}.cls-2{fill:#fff;}</style></defs><g id="Layer_2" data-name="Layer 2"><g id="Layer_3" data-name="Layer 3"><circle class="cls-1" cx="385.9" cy="385.9" r="385.9"/><path class="cls-2" d="M209.81,364.19c41.51,22.28,78.63,21.79,114.66-11.8,11.44,19.67,22.42,38.47,33.31,57.31,20.48,35.45,41.28,70.72,61.1,106.52,5.51,9.95,11.88,13.64,23.13,13.3,25.61-.79,51.26-.25,78.34-.25v53.07H216.12V530h88.05Z"/><path class="cls-2" d="M402.31,342.78V236.53c42.71,9.75,74.11-4.91,90.87-47.06l89.9,52.84c-5.22,10.53-9.74,19.65-15.16,30.56l-64.8-34.21c-30.81,33.85-31.25,56.07-1.34,101.2l65.74-34.71,15.42,30.47-88.63,52.27C476.11,349.35,447,330.29,402.31,342.78Z"/><path class="cls-2" d="M253.42,353.64c-35-.3-64.24-29.24-64.69-64-.45-35.16,29.67-65.41,65.24-65.51s65.7,29.87,65.57,65.14C319.4,324.71,289.38,353.94,253.42,353.64Zm35.19-64.09c.21-19.12-15.11-35.29-33.83-35.68-18.27-.38-35.13,16-35.51,34.46-.38,18.88,15.19,34.84,34.28,35.13A34.05,34.05,0,0,0,288.61,289.55Z"/><path class="cls-2" d="M385.19,324.69H336.64V255.08h48.55Z"/><path class="cls-2" d="M253.45,313.91c-8.09-12.05-16.89-19.45-15.94-25.26,1-6.39,11.2-15.76,17.15-15.59s15.44,10.19,16.1,16.64C271.36,295.55,262.17,302.41,253.45,313.91Z"/></g></g></svg>