<svg xmlns="http://www.w3.org/2000/svg" viewBox="0 0 771.81 771.81"><defs><style>.cls-1,.cls-3{fill:#ea0c0c;}.cls-2{fill:#f4a4a4;}.cls-2,.cls-3,.cls-4,.cls-5{stroke:#8c1313;stroke-miterlimit:10;stroke-width:12.83px;}.cls-4{fill:#fff;}.cls-5{fill:#b53333;}</style></defs><g id="Layer_2" data-name="Layer 2"><g id="Layer_3" data-name="Layer 3"><circle class="cls-1" cx="385.9" cy="385.9" r="385.9"/><path class="cls-2" d="M464.05,318.51V310a78.15,78.15,0,0,0-156.3,0v8.56c-8.27,0-15,9.51-15,21.24s6.71,21.23,15,21.23c.25,0,.48,0,.74-.05a78.13,78.13,0,0,0,154.83,0c.25,0,.5.05.73.05,8.29,0,15-9.51,15-21.23S472.34,318.51,464.05,318.51Z"/><path class="cls-2" d="M420.92,420.61v30.17l-37.26,19.81L350.9,450.47V420.61a78.07,78.07,0,0,0,70,0Z"/><polygon class="cls-3" points="403.61 491.53 384.47 471.44 385.16 470.59 404.36 490.74 403.61 491.53"/><path class="cls-4" d="M568.72,592.28H203.08L216,519c11.08-41.87,44.15-46.44,44.15-46.44l56.18-13.4,38.43,46.82,29-35.35.81.85-17,20.78,9.88,10.4-21.4,89.31h59.95L394.33,502l-9.17,8.9,18.44-19.36,13.71,14.41,38.42-46.78,56,13.36s33.08,4.57,44.13,46.44Z"/><polygon class="cls-4" points="383.66 470.59 354.71 505.94 316.28 459.12 350.9 450.86 350.9 450.47 383.66 470.59"/><polygon class="cls-3" points="350.9 450.47 350.9 450.86 316.28 459.12 315.13 457.72 349.38 449.54 350.9 450.47"/><polygon class="cls-4" points="455.73 459.17 417.31 505.94 403.61 491.53 404.36 490.74 385.16 470.59 384.47 471.44 383.66 470.59 420.92 450.78 420.92 450.86 455.73 459.17"/><polygon class="cls-3" points="404.36 490.74 403.61 491.53 384.47 471.44 385.16 470.59 404.36 490.74"/><polygon class="cls-3" points="456.69 458.01 455.73 459.17 420.92 450.86 420.92 450.78 422.63 449.87 456.69 458.01"/><polygon class="cls-3" points="403.61 491.53 385.16 510.88 377.33 502.62 367.45 492.22 384.47 471.44 403.61 491.53"/><polygon class="cls-5" points="404.36 490.74 403.61 491.53 384.47 471.44 385.16 470.59 404.36 490.74"/><polygon class="cls-3" points="415.88 591.93 355.93 591.93 377.33 502.62 385.16 510.88 394.33 501.99 415.88 591.93"/><polygon class="cls-4" points="396.2 223.01 392.61 179.53 385.9 179.53 379.2 179.53 375.62 223.01 396.2 223.01"/><path class="cls-4" d="M475.26,294.27c0-28.81-12.08-58.09-35.67-77.29a85.91,85.91,0,0,0-19.12-11.76l-2-12.66a80.27,80.27,0,0,0-25.4-7.12L396.2,223H375.62l3.1-37.69c-15.56,1.4-25.4,7.24-25.4,7.24l-2.27,12.66c-23.6,10.84-40.73,31.81-48.79,54.94a103.74,103.74,0,0,0-5.7,34.11h178.7"/><line class="cls-3" x1="418.5" y1="192.56" x2="425.34" y2="236.69"/><line class="cls-3" x1="345.43" y1="236.69" x2="353.32" y2="192.56"/><path class="cls-4" d="M325.86,248.51s-9.05,15.89-8.36,28h55.89"/><path class="cls-3" d="M476.26,294.27H295.67s-8.14.31-8.07,12.82H484.21C484.29,294.58,476.26,294.27,476.26,294.27Z"/></g></g></svg>