<svg xmlns="http://www.w3.org/2000/svg" viewBox="0 0 771.81 771.81"><defs><style>.cls-1{fill:#ea0c0c;}.cls-2,.cls-3{fill:none;stroke:#f9f9f9;stroke-width:11.63px;}.cls-2{stroke-miterlimit:10;}.cls-3{stroke-linecap:round;stroke-linejoin:round;}</style></defs><g id="Layer_2" data-name="Layer 2"><g id="Layer_3" data-name="Layer 3"><circle class="cls-1" cx="385.9" cy="385.9" r="385.9"/><polygon class="cls-2" points="558.78 242.7 558.78 581.03 213.03 581.03 213.03 190.77 508.88 190.77 558.78 242.7"/><polygon class="cls-3" points="558.78 242.7 508.88 190.77 508.88 242.7 558.78 242.7"/><rect class="cls-2" x="281.73" y="248.27" width="104.86" height="104.86"/><rect class="cls-2" x="270.75" y="238.63" width="20.59" height="20.59"/><rect class="cls-2" x="376.3" y="237.97" width="20.59" height="20.59"/><rect class="cls-2" x="313.25" y="279.78" width="41.83" height="41.84"/><rect class="cls-2" x="270.75" y="339.46" width="20.59" height="20.59"/><rect class="cls-2" x="376.3" y="339.46" width="20.59" height="20.59"/><line class="cls-2" x1="253.85" y1="419.79" x2="386.6" y2="419.79"/><line class="cls-2" x1="253.85" y1="455.17" x2="376.3" y2="455.17"/><line class="cls-2" x1="253.85" y1="492.05" x2="344.1" y2="492.05"/><polyline class="cls-2" points="426.1 479.22 447.5 500.63 503.83 444.31"/><circle class="cls-2" cx="464.96" cy="472.47" r="58.31"/></g></g></svg>