<svg xmlns="http://www.w3.org/2000/svg" viewBox="0 0 771.81 771.81"><defs><style>.cls-1{fill:#ea0c0c;}.cls-2,.cls-3{fill:none;stroke:#f9f9f9;stroke-miterlimit:10;}.cls-2{stroke-width:11.63px;}.cls-3{stroke-width:5.81px;}.cls-4{fill:#f9f9f9;}</style></defs><g id="Layer_2" data-name="Layer 2"><g id="Layer_3" data-name="Layer 3"><circle class="cls-1" cx="385.9" cy="385.9" r="385.9"/><path class="cls-2" d="M420.09,208.81H558A39.23,39.23,0,0,1,597.18,248V522.65A39.23,39.23,0,0,1,558,561.88H420.09"/><circle class="cls-3" cx="508.11" cy="350.49" r="19.7"/><line class="cls-3" x1="508.11" y1="330.79" x2="508.11" y2="305.79"/><path class="cls-3" d="M490.05,358.35,464.17,430.8v34.1l24.24-28,19.7-66.67S496.77,370.21,490.05,358.35Z"/><path class="cls-3" d="M527.22,358.35l25.89,72.45v34.1l-24.25-28-19.7-66.67S520.5,370.21,527.22,358.35Z"/><line class="cls-3" x1="464.17" y1="380.97" x2="464.17" y2="400.43"/><line class="cls-3" x1="464.17" y1="390.7" x2="478.49" y2="390.7"/><circle class="cls-3" cx="508.19" cy="351.03" r="4.19"/><polygon class="cls-4" points="174.63 195.36 174.63 565.24 427.94 605.59 427.94 166.22 174.63 195.36"/><path class="cls-1" d="M212.48,441.1a24.42,24.42,0,0,1-10.21-10.59q-3.54-6.94-3.54-16.81V374.83q0-9.87,3.54-16.84a24.27,24.27,0,0,1,10.21-10.62,33.09,33.09,0,0,1,16.07-3.65q9.25,0,15.59,3.68A24.44,24.44,0,0,1,254,358.53q3.51,7.46,4.19,18.89H239.92a30.72,30.72,0,0,0-1.81-8.88,11.18,11.18,0,0,0-3.81-5.21,9.76,9.76,0,0,0-5.75-1.7,12,12,0,0,0-6.2,1.53,10,10,0,0,0-4,4.53,16.78,16.78,0,0,0-1.39,7.14V413.7a16.55,16.55,0,0,0,1.39,7.15,10.13,10.13,0,0,0,4,4.46,12,12,0,0,0,6.2,1.53,9.69,9.69,0,0,0,5.78-1.7,11.6,11.6,0,0,0,3.82-5.21,28.76,28.76,0,0,0,1.77-8.88h18.24q-.75,11.43-4.26,18.88a24.44,24.44,0,0,1-9.8,11.13q-6.3,3.68-15.55,3.68A33.09,33.09,0,0,1,212.48,441.1Z"/><path class="cls-1" d="M291.51,344.75h11.85l30.7,99H315.68l-18.25-66.16-18.24,66.16H260.81Zm-13.61,66.5h39.48v16.88H277.9Z"/><path class="cls-1" d="M343.93,344.75h17.69v99H343.93Zm10.27,81.88h18.18q6.33,0,9.77-3.23t3.43-9.22V374.29q0-6-3.43-9.23t-9.77-3.23H354.2V344.75H373a37.58,37.58,0,0,1,16.64,3.37A23.36,23.36,0,0,1,400.15,358a31.5,31.5,0,0,1,3.61,15.55v41.39a31.72,31.72,0,0,1-3.51,15.28,23.54,23.54,0,0,1-10.45,10q-6.93,3.51-16.88,3.51H354.2Z"/></g></g></svg>