<svg xmlns="http://www.w3.org/2000/svg" viewBox="0 0 1722.83 251.25"><defs><style>.cls-1{fill:#b90909;}</style></defs><g id="Layer_2" data-name="Layer 2"><g id="Layer_1-2" data-name="Layer 1"><path class="cls-1" d="M603.57,117.39c0,11.89.08,23.78-.05,35.66a79.34,79.34,0,0,1-1.07,12.12,22,22,0,0,1-2.62,7,13,13,0,0,1-8,6.13,38,38,0,0,1-11.13,1.32c-9.36-.08-8.76.48-12.74-7.83q-13.56-28.34-27.22-56.64c-1.22-2.53-2.48-5-3.81-7.52a2,2,0,0,0-1.42-.91c-1.19,0-1.31,1.08-1.34,2q-.15,4.22-.15,8.44c0,17.83,0,35.66,0,53.49,0,8.88-.23,9-8.81,9-1.56,0-3.13,0-4.68-.13a3.64,3.64,0,0,1-3.77-3.41c-.14-2.18-.19-4.38-.19-6.56q0-43.65,0-87.28c0-1.88,0-3.75.09-5.63.16-3.44,1.26-4.72,4.41-4.79,4.37-.1,8.75-.06,13.13,0a4.78,4.78,0,0,1,4.54,2.75c1.11,2.24,2.26,4.47,3.33,6.72l34.25,72c1.07,2.26,2.2,4.5,3.27,6.76.69,1.46,1.53,2.74,3.35,2.83,1.43.07,2.55-1.51,2.78-4.27s.36-5.62.37-8.43c0-10.63,0-21.27,0-31.91,0-11.88,0-23.77,0-35.66,0-2.5.08-5,.22-7.49a3.42,3.42,0,0,1,2.93-3.17c3.44-.1,6.88-.16,10.31-.07,2.52.07,3.82,1.51,3.88,4.29.11,5.63.11,11.26.12,16.89q0,12.21,0,24.4Z"/><path class="cls-1" d="M785.67,151.91a36.18,36.18,0,0,0-4.44-.54c-10.94-.06-21.87-.05-32.8,0a20.16,20.16,0,0,0-3.72.31,3.41,3.41,0,0,0-2.75,2.26c-1.53,4.75-3,9.53-4.46,14.29-.93,3-1.76,6-3,8.86a4,4,0,0,1-2.76,2.15c-4.34.19-8.71,0-13.06-.05-1.06,0-2-1.71-1.73-2.88.63-2.41,1.25-4.83,2-7.21q11.29-36.69,22.65-73.36c.92-3,1.91-5.94,3-8.86a70.67,70.67,0,0,1,3-6.85c5.61-11.15,17.63-11.55,25.81-8.19a12.63,12.63,0,0,1,5.73,4.71,53.13,53.13,0,0,1,4.18,7.28,75.5,75.5,0,0,1,3.18,8.79q12.15,39.38,24.22,78.76a44.46,44.46,0,0,1,1.4,5.42,1.8,1.8,0,0,1-1.25,2.2,38.77,38.77,0,0,1-13.92.14,4.05,4.05,0,0,1-2.66-2.31c-1.72-5-3-10.16-4.74-15.19C788.51,158.41,788.24,154.84,785.67,151.91Zm-4.5-15.86a5.85,5.85,0,0,0,.13-1.44q-6.27-21.53-12.59-43a13,13,0,0,0-1.28-2.48c-1.16-2.06-4.27-2.31-5.42-.34a23.67,23.67,0,0,0-2.29,5q-5.81,19.22-11.45,38.49c-.34,1.17-.47,2.41-.68,3.52.72.46,1.22,1.06,1.73,1.07q13.53.25,27.08.37A6.62,6.62,0,0,0,781.17,136.05Z"/><path class="cls-1" d="M443,133.39c-.41.54-.71.76-.77,1a41.36,41.36,0,0,0,.69,20.32,12.85,12.85,0,0,0,8.1,8.52,26.83,26.83,0,0,0,10.1,1.66q13.61,0,27.21,0c2.19,0,4.37.12,6.55.25a2.59,2.59,0,0,1,2.32,2.49c.08,2.8.13,5.61.08,8.42a3.11,3.11,0,0,1-2.84,3.15c-15.31.21-30.63,1.27-45.88-1a39,39,0,0,1-6.34-1.6c-10.6-3.47-16.24-11.15-18.2-21.81a42.49,42.49,0,0,1-.59-7.48q-.09-21.57,0-43.15a55.39,55.39,0,0,1,.33-5.62c1.44-13.84,9.76-23,23.48-25.52a73.69,73.69,0,0,1,12.11-1.33c10.63-.19,21.27-.1,31.9-.07a10,10,0,0,1,3.67.55,2.94,2.94,0,0,1,1.71,2c.16,3.41.08,6.83-.05,10.24a1.9,1.9,0,0,1-1.25,1.26,24.92,24.92,0,0,1-4.64.47c-9.7,0-19.39,0-29.09,0a29.69,29.69,0,0,0-9.25,1.22,13.77,13.77,0,0,0-9.81,10.35c-1.46,5.86-1.26,11.78-.8,17.72a2.84,2.84,0,0,0,2.43,2.46c2.17.15,4.36.28,6.54.29,10,0,20,0,30,0,2.18,0,4.37.17,6.54.33a3.07,3.07,0,0,1,2.36,2.56c.07.62.18,1.24.19,1.86.07,9.83.69,9.89-9.61,9.86q-16-.06-31.9,0C446.41,132.93,444.57,133.24,443,133.39Z"/><path class="cls-1" d="M332.31,152.54c19.28-21.65,38.88-43,57.91-64.32-.9-2.4-2.33-2-3.44-2-13.75-.05-27.51,0-41.26-.06-2.81,0-5.62-.11-8.43-.23a2.71,2.71,0,0,1-2.41-2.43c-.84-12-.8-11.94,10.27-11.92,18.76,0,37.52,0,56.28,0a56.53,56.53,0,0,1,7.47.45,2.69,2.69,0,0,1,1.87,1.77c.26,4.34.39,8.69.31,13a6.42,6.42,0,0,1-1.54,3.3c-1.32,1.74-2.84,3.33-4.29,5q-25.24,28.38-50.49,56.77c-1.66,1.86-3.33,3.74-4.81,5.75-1.63,2.22,0,6.34,2.76,6.77A48.85,48.85,0,0,0,360,165c14.38,0,28.76,0,43.15,0,3.1,0,6.25-.37,9.71.65a11.78,11.78,0,0,1,1.07,3.18,72,72,0,0,1,0,7.49,3.36,3.36,0,0,1-3,3.13c-1.55.13-3.11.22-4.67.22-17.2,0-34.39.07-51.59,0a58.55,58.55,0,0,1-10.2-1.13c-7-1.29-10.79-5.87-12-12.71C331.74,161.48,332.05,157.11,332.31,152.54Z"/><path class="cls-1" d="M695.21,153.46c5.88,2.45,7.65,3.73,12.3,9a37.92,37.92,0,0,1-25.31,17.49,69.77,69.77,0,0,1-28.85-.15,47.88,47.88,0,0,1-10.59-3.64c-10-4.79-15.87-12.92-17.89-23.73a71.17,71.17,0,0,1-1.07-12.11c-.14-9.68-.1-19.37,0-29a82.22,82.22,0,0,1,.73-10.28c1.93-14,9.62-23.43,23-28a60.64,60.64,0,0,1,24-2.87c5.28.37,10.58.92,15.63,2.81,8.15,3,14.72,7.94,19.24,15.87a39.71,39.71,0,0,1-11.29,8.36,1.92,1.92,0,0,1-1.73-.32c-1.39-1.24-2.68-2.6-3.94-4-4.92-5.37-11.17-7.81-18.28-8.34a37.15,37.15,0,0,0-14.8,1.6c-6.74,2.27-11.17,6.73-12.93,13.62a35.16,35.16,0,0,0-1.34,8.29c-.14,11.87-.17,23.74,0,35.61a33.51,33.51,0,0,0,1.7,9.16,17.61,17.61,0,0,0,11.23,11.79,37.83,37.83,0,0,0,27.48-.45,21.4,21.4,0,0,0,7.62-5.35C691.87,157,693.58,155.17,695.21,153.46Z"/><path class="cls-1" d="M1242,125.26q0-22,0-44.09c0-1.87,0-3.75.12-5.62.11-2.28,1.27-3.63,3.34-3.74q4.21-.23,8.43-.21c9.44,0,8.71-.53,12.69,7.84q17.75,37.25,35.47,74.49c1.21,2.54,2.45,5.07,3.86,7.49a3.86,3.86,0,0,0,2.25,1.28c.94.26,2.47-1.16,2.66-2.19a24.71,24.71,0,0,0,.57-3.7c.11-2.81.11-5.62.11-8.44q0-32.82,0-65.65c0-2.81.17-5.61.32-8.41a2.91,2.91,0,0,1,2.54-2.37c2.48-.16,5-.34,7.47-.32,6.34,0,6.82.48,6.83,7.08q.06,38.92,0,77.85c0,4.07-.2,8.09-1.69,12-2.06,5.4-5.64,9-11.38,10a40.44,40.44,0,0,1-7.42.9c-12.2,0-10.45,1.37-15.54-9.22q-14.43-30-28.81-60a43.43,43.43,0,0,0-2.9-4.73c-.1-.16-.58-.17-.85-.11s-.56.3-.58.48c-.13,2.17-.3,4.35-.3,6.53,0,19.38,0,38.77,0,58.15,0,9-.07,9-8.71,8.95-1.87,0-3.74-.16-5.61-.31a2.94,2.94,0,0,1-2.52-2.38c-.16-2.48-.32-5-.33-7.47Q1242,147.31,1242,125.26Z"/><path class="cls-1" d="M957.09,105.58c-1.44,2.3-.83,4.86-.83,7.28-.06,18.47,0,36.93,0,55.39,0,2.8-.2,5.61-.36,8.41a3.2,3.2,0,0,1-2.47,2.49c-1.55.16-3.11.33-4.66.35-9.76.13-9.83.1-9.84-9.87q0-44.59,0-89.18c0-8.74.13-8.77,9-8.86,1.88,0,3.77.14,5.63,0,4.28-.35,6.86,1.32,8.75,5.35,10.45,22.39,21.16,44.66,31.78,67,2.42,5.08,4.83,10.17,7.3,15.23a23.92,23.92,0,0,0,2,3.12c.6.85,2.88.65,3.29-.29a12,12,0,0,0,1.26-3.46c.31-3.42.49-6.86.5-10.29q.06-31.45,0-62.9V81.55c.08-10.06.09-10.08,9.77-9.94,1.55,0,3.11.19,4.66.35a3.26,3.26,0,0,1,2.51,2.45,45.65,45.65,0,0,1,.35,4.66c0,25.35.06,50.69,0,76a54.29,54.29,0,0,1-1.28,11.14c-1.53,7.15-6,11.42-13.34,12.67a58.11,58.11,0,0,1-15,.3,4.59,4.59,0,0,1-3-1.93,60.44,60.44,0,0,1-3.45-6.64Q975,140.2,960.35,109.77C959.59,108.18,959.32,106.11,957.09,105.58Z"/><path class="cls-1" d="M1549.81,128.42a11.22,11.22,0,0,0,2,2.18c4.68,3,7.56,7.38,9.7,12.35a65.88,65.88,0,0,1,2.77,7c2.6,8.68,5.09,17.4,7.58,26.11a2.47,2.47,0,0,1-2.31,3.26c-2.81.14-5.62.24-8.43.21-2.17,0-4.33-.26-6.75-.42A39.48,39.48,0,0,1,1552,174c-2-6.58-3.78-13.23-5.81-19.8a81.45,81.45,0,0,0-3.91-10.52c-2.59-5.51-7-8.81-13.22-9.05-6.55-.25-13.11-.16-19.66-.12a3.09,3.09,0,0,0-3,3c-.18,2.49-.31,5-.32,7.48,0,8.76,0,17.52,0,26.27a55.3,55.3,0,0,1-.42,5.6,3.06,3.06,0,0,1-2.55,2.39c-2.81.13-5.62.27-8.43.24-6.37-.07-6.83-.47-6.83-7.07q-.06-46.9,0-93.83a17.82,17.82,0,0,1,.51-4.61,3.05,3.05,0,0,1,1.8-1.88,18.38,18.38,0,0,1,4.64-.48c12.19,0,24.39-.12,36.59,0a77.05,77.05,0,0,1,13,1.3,42.61,42.61,0,0,1,9.72,3.26,22.16,22.16,0,0,1,12,13.72,36.9,36.9,0,0,1,.68,22.18,21.59,21.59,0,0,1-10.13,13C1554.51,126.36,1552.21,127.27,1549.81,128.42Zm-43.63-25.49h0c0,4.35-.07,8.7,0,13a3.27,3.27,0,0,0,3.45,3.56c7.77.08,15.55.2,23.32,0a24.24,24.24,0,0,0,7.22-1.59,13.65,13.65,0,0,0,8.65-9.13c3.77-11.47-2.95-21.59-15-22.56-1.55-.13-3.11-.1-4.66-.1-5,0-10,0-14.93,0-1.55,0-3.11,0-4.66.12-2.16.13-3.33,1.25-3.39,3.58C1506.11,94.22,1506.18,98.58,1506.18,102.93Z"/><path class="cls-1" d="M1130.66,88.62A112.08,112.08,0,0,1,1119.13,97c-3,0-3.91-1.84-5.09-3.17a27.07,27.07,0,0,0-17-9.07c-7.22-1-14.37-.65-21.14,2.4a17.56,17.56,0,0,0-10.07,11.68,41.73,41.73,0,0,0-1.61,10.14q-.3,16.39,0,32.8a41.53,41.53,0,0,0,1.51,10.15,18,18,0,0,0,12.46,12.92,41.42,41.42,0,0,0,26.69-.43,20.64,20.64,0,0,0,5.58-3.36,10.69,10.69,0,0,0,4.12-7.12,42.43,42.43,0,0,0-.08-13.07,7.75,7.75,0,0,0-5.86-6.62,29,29,0,0,0-6.45-.87c-3.74-.15-7.5,0-11.24-.13-3.23-.09-4.25-1.22-4.29-4.73,0-2.18.11-4.36.25-6.54a3.26,3.26,0,0,1,2.46-2.5,11.52,11.52,0,0,1,1.84-.28c7.49,0,15,.07,22.48.23a21.21,21.21,0,0,1,9,2.22,16.75,16.75,0,0,1,8.6,9.45c.22.59.38,1.19.57,1.79,1.61,5.26,1.8,20.85.34,26a24.85,24.85,0,0,1-7.33,11.77,32.75,32.75,0,0,1-12.07,7c-14,4.56-28.27,5-42.39.53-14.67-4.63-22.57-14.95-24-30.21-.21-2.18-.33-4.37-.33-6.55,0-10.63-.07-21.25,0-31.87,0-5.32.42-10.58,2.18-15.7a32,32,0,0,1,16.14-18.63,42.11,42.11,0,0,1,12.39-4.15,77.29,77.29,0,0,1,27-.07c9.84,1.79,18.35,6,24.76,13.9A26.43,26.43,0,0,1,1130.66,88.62Z"/><path class="cls-1" d="M1697.55,152.42a16.66,16.66,0,0,0-3.44-1q-18.25-.1-36.52-.08a23.4,23.4,0,0,0-3.82.66c-.75,1.78-1.62,3.42-2.17,5.17-1.88,5.95-3.59,11.95-5.47,17.9-1.17,3.74-2,4.32-6.1,4.37-3.43,0-6.86-.09-10.29-.21a2.37,2.37,0,0,1-2.08-2.58c.53-2.11,1-4.24,1.69-6.32q11.88-38.46,23.81-76.9c.92-3,2-5.9,3.09-8.83.42-1.17,1-2.29,1.51-3.42,5.08-11,15.14-13,25.18-10a13.06,13.06,0,0,1,6.7,4.91,39.52,39.52,0,0,1,4.32,7.19,91.53,91.53,0,0,1,3.87,10.53q11.84,38.47,23.54,77c.54,1.78,1,3.59,1.41,5.41.28,1.17-.72,2.82-1.79,2.85-4.35.09-8.71.18-13.06.09a3.17,3.17,0,0,1-2.7-2.3c-.77-2-1.43-4.12-2.08-6.2C1701.31,164.74,1699.49,158.77,1697.55,152.42Zm-22.66-15.34v.19c.93,0,1.87.06,2.8,0,4.61-.35,9.34.93,13.81-1,1.13-.47.79-2.05-2.79-14.16-2.65-9-5.24-17.92-8-26.83a39.51,39.51,0,0,0-3-6.76c-.82-1.53-4.11-1.54-4.86,0a45.2,45.2,0,0,0-2.85,6.83c-3.56,11.6-7,23.23-10.47,34.85-.35,1.19-.59,2.42-.85,3.64-.4,1.86.45,3.21,2.19,3.23C1665.56,137.12,1670.22,137.08,1674.89,137.08Z"/><path class="cls-1" d="M1199.36,179.52c-7.64-.11-16.12.5-24.47-1.15a57.82,57.82,0,0,1-8.15-2c-9-3.17-14.48-9.62-16.69-18.75a49.76,49.76,0,0,1-1.49-11.12c-.17-14.07-.12-28.15,0-42.22a45.27,45.27,0,0,1,1-8.35c2.49-12.76,10.17-20.45,22.94-22.84a73.57,73.57,0,0,1,12.1-1.33c10.63-.19,21.27-.1,31.9-.06a12.9,12.9,0,0,1,3.63.65,2.25,2.25,0,0,1,1.29,1.22,19.18,19.18,0,0,1,.13,11,1.94,1.94,0,0,1-1.34,1.15,41.54,41.54,0,0,1-5.57.44c-9.07,0-18.14,0-27.21.06a41.07,41.07,0,0,0-8.36.81c-6.45,1.42-10.7,5.53-11.49,12.07-.67,5.53-.29,11.21-.19,16.81a2.65,2.65,0,0,0,1.76,1.83,40.54,40.54,0,0,0,6.52.48c10.94,0,21.89,0,32.83,0,6.32,0,6.89.69,6.89,7,0,1.25,0,2.5-.11,3.75-.14,2.2-1.39,3.6-3.42,3.69-2.5.1-5,.12-7.5.13-10,0-20,0-30,0a37.36,37.36,0,0,0-5.58.52c-.5.08-1,.73-1.31,1.25a4.09,4.09,0,0,0-.37,1.82c0,4.06-.22,8.14.05,12.19a27.34,27.34,0,0,0,1.66,7.25,12.19,12.19,0,0,0,7.06,7.11,24.58,24.58,0,0,0,10.06,1.87c8.13,0,16.26,0,24.39,0,2.51,0,5,0,7.51,0,4.28.1,5.08.85,5.22,4.74.33,9.63.17,9.8-9.75,9.86C1208.91,179.54,1204.53,179.52,1199.36,179.52Z"/><path class="cls-1" d="M1394.13,125c0-6.57-.11-13.14,0-19.7A61.53,61.53,0,0,1,1395.25,95c2.49-12.5,10.57-19.48,22.73-22a74.09,74.09,0,0,1,13-1.39c10.32-.2,20.64-.12,31,0,5,0,5.72.93,5.75,6.26,0,1.87-.13,3.75-.25,5.61a2.62,2.62,0,0,1-2.4,2.4c-2.5.12-5,.23-7.49.24-8.45,0-16.89,0-25.34,0a29.34,29.34,0,0,0-9.23,1.29c-5.64,1.86-9.16,5.72-9.79,11.42-.61,5.55-.25,11.21-.26,16.83a2.7,2.7,0,0,0,2.56,2.25c2.5.12,5,.24,7.49.25,9.38,0,18.77,0,28.15,0,2.19,0,4.38.09,6.55.29a2.67,2.67,0,0,1,2.54,2.36c.19,3.08.12,6.19,0,9.29a2.94,2.94,0,0,1-2.54,2.38c-2.18.14-4.37.26-6.55.27-9.38,0-18.77,0-28.15,0-2.5,0-5,.11-7.49.23a2.68,2.68,0,0,0-2.59,2.22c0,5.61-.36,11.27.23,16.83.61,5.71,4.12,9.57,9.74,11.47a28.44,28.44,0,0,0,9.23,1.26c9.07,0,18.14,0,27.22,0,2.18,0,4.36.12,6.54.25a2.69,2.69,0,0,1,2.35,2.49c.08,2.81.14,5.61.08,8.42a3.38,3.38,0,0,1-2.89,3.2c-1.87.14-3.74.24-5.62.25-8.75,0-17.52.16-26.27-.06a138.53,138.53,0,0,1-14.92-1.36,31.85,31.85,0,0,1-7.19-2,25.07,25.07,0,0,1-15.4-16.58,41.26,41.26,0,0,1-2-12.93c.06-7.19,0-14.39,0-21.58Z"/><path class="cls-1" d="M911.33,73.08c.16,2.16.44,4.32.45,6.48q0,45.89,0,91.78a31.38,31.38,0,0,1-.41,5.57c-.15.78-1,1.93-1.63,2a36.62,36.62,0,0,1-13.92,0c-.73-.15-1.48-1.09-1.86-1.85a6.73,6.73,0,0,1-.5-2.73c-.07-2.5-.07-5-.07-7.49V84.46c0-1.56,0-3.12,0-4.68.11-7.9.38-8.17,8.69-8.17a59.22,59.22,0,0,1,6.53.28A10.24,10.24,0,0,1,911.33,73.08Z"/><path class="cls-1" d="M1591.76,73.13a9.91,9.91,0,0,1,2.72-1.23c2.16-.24,4.35-.27,6.54-.3,8.83-.1,8.8.59,8.8,9q0,45,0,90c0,8.86-.11,8.89-8.84,8.93h-1.88c-7.53-.08-7.76-.25-7.77-8q0-45.94,0-91.89C1591.33,77.43,1591.61,75.28,1591.76,73.13Z"/><path class="cls-1" d="M1372,126.11q0,21.55,0,43.13c0,2.49-.15,5-.31,7.48a2.92,2.92,0,0,1-2.45,2.46c-2.8.15-5.61.33-8.41.3-6.16,0-6.86-.73-6.91-7.11-.09-9.38,0-18.76,0-28.14q0-30.94,0-61.89a61.37,61.37,0,0,1,.61-8.35,2.74,2.74,0,0,1,1.81-1.88c4.35-.19,8.71-.16,13.07-.13a3.16,3.16,0,0,1,2.36,2.56c.12,2.5.24,5,.24,7.49Q1372,104.07,1372,126.11Z"/><path class="cls-1" d="M131,.52c-.83,6.33-3.62,10.87-5.64,16-2.59.31-5,.7-7.43.88a108,108,0,0,0-95.6,75.32C7.1,141.51,26.89,191.85,69.17,217.91c3.27,2,6.61,3.94,9.69,5.78.63,4.55-2.47,7.7-2.61,11.63.56-.06,1.38.1,1.62-.21,1.33-1.64,2.48-3.41,3.74-5.11,2.35-3.16,3.66-3.71,7.18-2.58a126.71,126.71,0,0,0,17.4,4.53c31.66,5.39,60.56-1.24,85.78-21.08,29.55-23.23,43.72-54.32,41.58-91.73-2-35.72-18.9-63.77-48.47-84-1.43-1-2.92-2-5.27-1.4-2.86,4.09-4.71,9.08-7,13.81-1.39,2.83-.87,3.86,2,6.18,4.37,3.58,8.95,7,12.89,11,16.38,16.63,24.86,36.83,25,60.08a86.8,86.8,0,0,1-69.35,86,92.38,92.38,0,0,1-39.89-.92,18.12,18.12,0,0,1-3-1.08c-1-.42-1.85-1-3.15-1.67,1.17-2.24,2.13-4.48,3.44-6.5q12.06-18.7,24.26-37.32,20.22-31.08,40.42-62.19c1.3-2,3.31-3.79,3-6.59-2.22-1.83-4.74-.84-7.05-.53-6.65.89-13.26,2-19.88,3.09-1.75.27-3.49.54-5.25.72-3.46.37-4.56-1.13-3.19-4.31.42-1,.88-1.93,1.34-2.88q18-37.19,36-74.36c3.18-6.52,3.91-6.8,10.47-3.41,38,19.65,61.12,50.39,68.51,92.59,10.89,62.07-28.35,125.57-93.09,141.83-24.27,6.09-48.54,5.56-71.95-3.22C37.82,226.52,10.17,192.92,1.22,144c-8.76-66.61,31-118.45,82-136.84A115.31,115.31,0,0,1,125.8,0C127.18.08,128.56.29,131,.52Z"/><path class="cls-1" d="M81.94,131.09c2.27,1.76,4.76.93,7.11.51,8.34-1.48,16.65-3.11,25-4.68.68-.13,1.39-.19,2.08-.28a1.76,1.76,0,0,1,2,1.91,30.63,30.63,0,0,1-1,4.07Q103.57,167.71,90,202.75A35.8,35.8,0,0,1,87.71,207c-2.82.33-4.57-.87-6.33-2-27.55-17.22-42-41.92-42.82-74.56-.85-36.13,23.27-72.87,63.33-84.22a79.81,79.81,0,0,1,11.42-2c.45-.06,1.71,1.62,1.55,2.21A73.56,73.56,0,0,1,112,54.36c-9.14,22.58-18.33,45.13-27.4,67.73C83.47,125,81.53,127.7,81.94,131.09Z"/></g></g></svg>