<svg xmlns="http://www.w3.org/2000/svg" viewBox="0 0 2511.75 1542.05"><defs><style>.cls-1{fill:#fcb4b4;}.cls-2{fill:#ea0c0c;}.cls-3{fill:#fff;}.cls-4{fill:#e1e9ec;}.cls-5{fill:#bcc9cf;}.cls-6{fill:#cedfe6;}.cls-7{fill:#006d9c;}.cls-8{fill:#004b6c;}.cls-9{fill:#e9eff2;}.cls-10{fill:#b26f53;}.cls-11{fill:#a6674d;}.cls-12{fill:#003352;}.cls-13{fill:#003e59;}.cls-14{fill:#00405b;}.cls-15{fill:#2b2013;}.cls-16{fill:#ededed;}.cls-17{fill:#891313;}.cls-18{fill:#f97373;}.cls-19{fill:#e3f5fc;}.cls-20{fill:#0052ee;}.cls-21{fill:#00b040;}.cls-22{fill:#ec1619;}.cls-23{fill:#5f6c7f;}.cls-24{fill:#4e5969;}.cls-25{fill:#ee2c2c;}.cls-26{fill:#5b0c0c;}.cls-27{fill:#545f70;}.cls-28{fill:#d6845f;}.cls-29{fill:#c47957;}.cls-30{opacity:0.04;}.cls-31{fill:#5b4436;}.cls-32{fill:#ccdde4;}.cls-33{fill:#f5f5f5;}.cls-34{fill:#444d5a;}.cls-35{fill:#659dad;}.cls-36{fill:#f3b100;}.cls-37{fill:#e3a000;}.cls-38{fill:#ad2828;}.cls-39{fill:#ffad00;}.cls-40{fill:#ef9c00;}.cls-41{fill:#ffbd33;}</style></defs><g id="Layer_2" data-name="Layer 2"><g id="Layer_1-2" data-name="Layer 1"><path class="cls-1" d="M2062.81,1496.37c88.25-148.12,139-321.2,139-506.13C2201.77,443.35,1758.42,0,1211.53,0S221.29,443.35,221.29,990.24c0,184.93,50.7,358,139,506.13Z"/><path class="cls-1" d="M1756.28,163.18C1600,60,1412.78,0,1211.53,0S823.05,60,666.77,163.18Z"/><polygon class="cls-2" points="885.28 281.21 849.28 281.21 849.28 69.35 885.28 55.88 885.28 281.21"/><path class="cls-2" d="M1236,886.85H972.54a70.33,70.33,0,0,1-70.25-70.25V630.23h21V816.6a49.31,49.31,0,0,0,49.25,49.25H1236a49.3,49.3,0,0,0,49.25-49.25V150.18a63.42,63.42,0,0,1,63.35-63.35H1456.1a63.42,63.42,0,0,1,63.35,63.35V458.75h-21V150.18a42.4,42.4,0,0,0-42.35-42.35H1348.58a42.4,42.4,0,0,0-42.35,42.35V816.6A70.32,70.32,0,0,1,1236,886.85Z"/><rect class="cls-3" x="728.18" y="273.94" width="278.2" height="356.29" rx="2.65"/><path class="cls-4" d="M726.81,630.51,516,660.56a2.32,2.32,0,0,1-2.73-2.34V246a2.31,2.31,0,0,1,2.73-2.34l210.79,30a2.6,2.6,0,0,1,2,2.62V627.9A2.6,2.6,0,0,1,726.81,630.51Z"/><rect class="cls-5" x="747.47" y="323.06" width="239.61" height="258.04"/><rect class="cls-6" x="749.59" y="371.03" width="26.82" height="57.98" transform="translate(1525.99 800.04) rotate(180)"/><rect class="cls-7" x="753.47" y="394.3" width="18.78" height="12.46" transform="translate(1525.71 801.05) rotate(180)"/><rect class="cls-8" x="753.55" y="405.81" width="18.97" height="7.78" transform="translate(1526.07 819.4) rotate(180)"/><rect class="cls-8" x="759.59" y="394.34" width="6.89" height="16.15" transform="translate(1526.07 804.82) rotate(180)"/><rect class="cls-6" x="958.15" y="371.03" width="26.82" height="57.98" transform="translate(1943.12 800.04) rotate(180)"/><rect class="cls-7" x="962.03" y="394.3" width="18.78" height="12.46" transform="translate(1942.84 801.05) rotate(180)"/><rect class="cls-8" x="962.12" y="405.81" width="18.97" height="7.78" transform="translate(1943.2 819.4) rotate(180)"/><rect class="cls-8" x="968.16" y="394.34" width="6.89" height="16.15" transform="translate(1943.2 804.82) rotate(180)"/><rect class="cls-6" x="779.03" y="371.03" width="176.49" height="57.98" transform="translate(1734.55 800.04) rotate(180)"/><rect class="cls-7" x="919.44" y="394.3" width="31.67" height="12.46" transform="translate(1870.56 801.05) rotate(180)"/><rect class="cls-8" x="919.44" y="405.81" width="31.67" height="7.78" transform="translate(1870.56 819.4) rotate(180)"/><rect class="cls-8" x="938.74" y="394.34" width="6.89" height="16.15" transform="translate(1884.38 804.82) rotate(180)"/><rect class="cls-8" x="924.92" y="394.34" width="6.89" height="16.15" transform="translate(1856.74 804.82) rotate(180)"/><rect class="cls-7" x="885.44" y="394.3" width="31.67" height="12.46" transform="translate(1802.56 801.05) rotate(180)"/><rect class="cls-8" x="885.44" y="405.81" width="31.67" height="7.78" transform="translate(1802.56 819.4) rotate(180)"/><rect class="cls-8" x="904.74" y="394.34" width="6.89" height="16.15" transform="translate(1816.37 804.82) rotate(180)"/><rect class="cls-8" x="890.92" y="394.34" width="6.89" height="16.15" transform="translate(1788.74 804.82) rotate(180)"/><rect class="cls-7" x="851.44" y="394.3" width="31.67" height="12.46" transform="translate(1734.55 801.05) rotate(180)"/><rect class="cls-8" x="851.44" y="405.81" width="31.67" height="7.78" transform="translate(1734.55 819.4) rotate(180)"/><rect class="cls-8" x="870.74" y="394.34" width="6.89" height="16.15" transform="translate(1748.37 804.82) rotate(180)"/><rect class="cls-8" x="856.92" y="394.34" width="6.89" height="16.15" transform="translate(1720.74 804.82) rotate(180)"/><rect class="cls-7" x="817.44" y="394.3" width="31.67" height="12.46" transform="translate(1666.55 801.05) rotate(180)"/><rect class="cls-8" x="817.44" y="405.81" width="31.67" height="7.78" transform="translate(1666.55 819.4) rotate(180)"/><rect class="cls-8" x="836.74" y="394.34" width="6.89" height="16.15" transform="translate(1680.37 804.82) rotate(180)"/><rect class="cls-8" x="822.92" y="394.34" width="6.89" height="16.15" transform="translate(1652.73 804.82) rotate(180)"/><rect class="cls-7" x="783.44" y="394.3" width="31.67" height="12.46" transform="translate(1598.55 801.05) rotate(180)"/><rect class="cls-8" x="783.44" y="405.81" width="31.67" height="7.78" transform="translate(1598.55 819.4) rotate(180)"/><rect class="cls-8" x="802.74" y="394.34" width="6.89" height="16.15" transform="translate(1612.37 804.82) rotate(180)"/><rect class="cls-8" x="788.92" y="394.34" width="6.89" height="16.15" transform="translate(1584.73 804.82) rotate(180)"/><rect class="cls-6" x="749.59" y="475.15" width="26.82" height="57.98"/><rect class="cls-7" x="753.75" y="497.41" width="18.78" height="12.46"/><rect class="cls-8" x="753.47" y="490.58" width="18.97" height="7.78"/><rect class="cls-8" x="759.51" y="493.68" width="6.89" height="16.15"/><rect class="cls-6" x="958.15" y="475.15" width="26.82" height="57.98"/><rect class="cls-7" x="962.31" y="497.41" width="18.78" height="12.46"/><rect class="cls-8" x="962.03" y="490.58" width="18.97" height="7.78"/><rect class="cls-8" x="968.07" y="493.68" width="6.89" height="16.15"/><rect class="cls-6" x="779.03" y="475.15" width="176.49" height="57.98"/><rect class="cls-7" x="783.44" y="497.41" width="31.67" height="12.46"/><rect class="cls-8" x="783.44" y="490.58" width="31.67" height="7.78"/><rect class="cls-8" x="788.92" y="493.68" width="6.89" height="16.15"/><rect class="cls-8" x="802.74" y="493.68" width="6.89" height="16.15"/><rect class="cls-7" x="817.44" y="497.41" width="31.67" height="12.46"/><rect class="cls-8" x="817.44" y="490.58" width="31.67" height="7.78"/><rect class="cls-8" x="822.92" y="493.68" width="6.89" height="16.15"/><rect class="cls-8" x="836.74" y="493.68" width="6.89" height="16.15"/><rect class="cls-7" x="851.44" y="497.41" width="31.67" height="12.46"/><rect class="cls-8" x="851.44" y="490.58" width="31.67" height="7.78"/><rect class="cls-8" x="856.92" y="493.68" width="6.89" height="16.15"/><rect class="cls-8" x="870.74" y="493.68" width="6.89" height="16.15"/><rect class="cls-7" x="885.44" y="497.41" width="31.67" height="12.46"/><rect class="cls-8" x="885.44" y="490.58" width="31.67" height="7.78"/><rect class="cls-8" x="890.92" y="493.68" width="6.89" height="16.15"/><rect class="cls-8" x="904.74" y="493.68" width="6.89" height="16.15"/><rect class="cls-7" x="919.44" y="497.41" width="31.67" height="12.46"/><rect class="cls-8" x="919.44" y="490.58" width="31.67" height="7.78"/><rect class="cls-8" x="924.92" y="493.68" width="6.89" height="16.15"/><rect class="cls-8" x="938.74" y="493.68" width="6.89" height="16.15"/><rect class="cls-9" x="508.49" y="243.61" width="7.52" height="416.02"/><path class="cls-2" d="M1234.87,1386.14H927.53a70.33,70.33,0,0,1-70.25-70.25V630.23h21v685.66a49.31,49.31,0,0,0,49.25,49.25h307.34a49.3,49.3,0,0,0,49.24-49.25v-79.45h21v79.45A70.32,70.32,0,0,1,1234.87,1386.14Z"/><path class="cls-2" d="M762,886.85H227.9v-21H762a49.3,49.3,0,0,0,49.24-49.25V630.23h21V816.6A70.32,70.32,0,0,1,762,886.85Z"/><path class="cls-10" d="M651.6,687.75c-26.47,16.41-51.55,33.88-76.47,51.58,5.1-17.33,10.4-34.62,17-51.35l-76.94-28.35c-13.29,43.06-21.42,87.51-28.3,131.89-3.79,17.43-2.77,50.79,13.51,60.81,32.29,19.86,68.4-23.32,92.87-41.51,29.28-23.28,62.34-49.93,92.54-71Z"/><path class="cls-11" d="M509.56,820.83c-6.23-28,13.49-50.61,35.74-64.63-2.17-5.15.25-10.43,4.6-13.71a272.52,272.52,0,0,0,33.17-29c2.79-8.58,5.78-17.09,9.1-25.46l-76.94-28.35c-13.29,43.06-21.42,87.51-28.3,131.89-3.79,17.43-2.77,50.79,13.51,60.81,11.21,6.89,22.88,6.19,34.36,1.57C522.54,846.41,512.79,835.34,509.56,820.83Z"/><path class="cls-10" d="M935.28,600.29c-5.44-45.53-20.86-92.89-32.68-136.84l-34.82,2.64c4.87,43.66,8.38,93.31,6.42,137-29.17-8.26-59.43-18.7-88.07-28.92l-25.35,83.35c107,20.84,148.28,17,153.93,16.89C947.22,673.64,938.64,628,935.28,600.29Z"/><path class="cls-11" d="M837.94,592c-17.46-5.69-34.92-11.78-51.81-17.81l-25.35,83.35c107,20.84,148.28,17,153.93,16.89,20.34-.48,24.6-18.52,24.11-38.74C901.63,642.88,859.28,622.19,837.94,592Z"/><path class="cls-12" d="M618.1,1436.49s8.25,37.6,3.79,54.86a6.23,6.23,0,0,1-6,4.7l-64.06-.1s-14.68-2.23-12.91-16c2.38-18.52,35.89-46.11,35.89-46.11Z"/><path class="cls-12" d="M749.49,1496l116.42.18s5.73-17.1-20.49-28.55-40.51-27.7-40.51-27.7l-54.44,2.35s-10.39,29.17-7.88,47.77A6.94,6.94,0,0,0,749.49,1496Z"/><path class="cls-10" d="M741,394.92s9.7,28.95,10.51,48,5.32,74.45-13.27,79-75.2-.72-85.37-8.66-46.64-72.87-29.65-99.82C644.16,380.26,701.71,362.19,741,394.92Z"/><path class="cls-3" d="M803.54,604.37s-17.26,169.17-14.2,194.08,11.81,154.16,7.25,173.11-54,53-115.46,58.27-108.83-32.3-111.39-64.47c-8.43-105.88-5.1-196.32-9.28-230.29s-34-121.91-26.65-136.61S605.52,546,653.09,540.1,814.7,545.52,803.54,604.37Z"/><path class="cls-8" d="M747.25,1449.82c-5.67-46.53-28.64-208.67-33.56-247.86-5.3-42.12-31.17-157.49-32.25-157.43-20.36,134.3-49,272.84-58.58,407.2l-64.41-4.41c-10.59-175.14-13.45-399.84,2.22-587.47.23-5.62.61-10.63,1.18-14.74,8.42-10.74,36.59-99.57,35-114.16-13-119.66-9.64-130.5-12.14-169.67,17.55-8.66,29.55-12.6,30-10,10,56.68,37.95,103.84,37.95,103.84s77.46-111.71,79.38-111.44c12.24,1.74,16.05,1.8,26.45,6.08-.61,1-42.18,151.36-36.44,177.3,2.8,12.62,43.12,98.16,72.31,126.76,1.83,11.9,3.53,24.19,5,36.2l.18,0q.81,7.21,1.56,14.72c1.9,16.89,3.29,32.58,3.91,45C819,1134.83,819,1400.64,818.1,1449Z"/><path class="cls-13" d="M794.06,1416.34a367.63,367.63,0,0,1-20.57-64c-5.19-23.18-5.43-47.13-11-70.19-57-237.63-82.48-228.45-81.08-237.63,1.08-.06,26.95,115.31,32.25,157.43,4.92,39.19,27.89,201.33,33.56,247.86l63.43-.74A267.13,267.13,0,0,1,794.06,1416.34Z"/><path class="cls-13" d="M588.94,1366.14c-.7-25.28.26-50.56.49-75.84.3-34.21-.33-68.43-.84-102.63-1.08-72.63-2.5-145.3-.19-217.92,1.13-35.79,3.18-71.56,6.66-107.2a495.06,495.06,0,0,1,7.76-52c3.23-15.77,6.57-31.55,6.67-47.72.1-17-3.43-34.22-5.56-51.09-2.2-17.37-4.37-34.75-6.77-52.09-3.2-23.13-6.78-46.21-11.24-69.13.7,24.52,1.59,54.27,10.93,140.39,1.59,14.59-26.58,103.42-35,114.16-.57,4.11-1,9.12-1.18,14.74-15.67,187.63-12.81,412.33-2.22,587.47l42.08,2.88C592.52,1423.15,589.72,1394.2,588.94,1366.14Z"/><path class="cls-14" d="M630.83,1058.25a11.31,11.31,0,0,1-.13-2.44l0-.49c0,.49,0,1,0,1.46S630.8,1057.76,630.83,1058.25Z"/><path class="cls-10" d="M722.33,542.31v-28l-72.27-23.68-6.37,51S683.66,564.32,722.33,542.31Z"/><path class="cls-15" d="M695.9,503.41c-20.58,11.32-39.48,10.29-48.81,5-14-20.46-38-72.64-23.88-95,17.84-28.3,101.65-50.06,113.17-31.16-.87.84,6.88,52.8-.12,58.26-11.82,9.22-13.06,8.12-15.49,22.86C719.78,469.46,697.67,502.44,695.9,503.41Z"/><path class="cls-3" d="M544.42,587.39s-35.78,30.18-63.68,151.3l88.43,10.23,11.61-45.19Z"/><path class="cls-16" d="M510.79,672.28a192.2,192.2,0,0,1,14.44-58.55c-12.72,22.15-29.71,60.79-44.49,125l34.59,4C511.88,719.35,509,695.87,510.79,672.28Z"/><path class="cls-10" d="M735.81,450.57s-2.9-20-13.93-12.28-3.53,24.76,1.17,29.07S738,477.43,735.81,450.57Z"/><path class="cls-3" d="M764.2,552.61s78,32.84,89.66,41.17l-24.05,87.78s-56.74-2.3-77.64-12.3Z"/><path class="cls-16" d="M826.79,664.58c-7.51,1.32-29.86,10.45-30.66,14.28,18,2.06,33.68,2.7,33.68,2.7l5-18.24C832.13,663.7,829.45,664.11,826.79,664.58Z"/><path class="cls-10" d="M910.62,433.19a6,6,0,0,0-.4-1.07c-.11-1.07-.26-2.15-.41-3.24-.09-.55-.17-1.09-.27-1.66s-.19-1.08-.35-1.82a5.78,5.78,0,0,0-10.67-1.69c-.1-1-.19-1.94-.29-2.92a5.79,5.79,0,0,0-10.67-2.48l0-1.29a5.78,5.78,0,0,0-9.53-4.18l-.29-5.76c-.14-3.12-.25-6.28-.33-9.33v-.07a5.52,5.52,0,0,0-11-.46c-.35,3.25-.65,6.39-.93,9.58l-.78,9.53q-.27,3.59-.49,7.19a22.9,22.9,0,0,0-5.31,3.54c-3.44,3.44-7.74,22.49-7.74,26.32s20.15,34.48,20.15,34.48c5.81,5.29,22.82,5.52,31.78,1.92.61.28,6.26-21.1,6.41-22.12C911.9,458.21,913.64,444.36,910.62,433.19Z"/><rect class="cls-17" x="1212.11" y="1143.92" width="160.04" height="105.03" rx="10.76"/><rect class="cls-18" x="1036.76" y="825.17" width="133.37" height="100.02" rx="7.54"/><rect class="cls-1" x="1069.56" y="853.8" width="67.76" height="42.76" transform="translate(1978.62 -228.26) rotate(90)"/><rect class="cls-3" x="1089.06" y="848.3" width="28.76" height="53.76"/><rect class="cls-19" x="1089.06" y="875.18" width="28.76" height="26.88"/><path class="cls-20" d="M1303.46,1249.11h-6.6v-23.57c0-21.61,20-39.2,44.6-39.2h129.31v6.59H1341.46c-21,0-38,14.63-38,32.61Z"/><path class="cls-21" d="M1297.56,1249.11H1291v-39c0-22,21.93-39.2,49.93-39.2h129.87v6.59H1340.9c-24.3,0-43.34,14.32-43.34,32.61Z"/><path class="cls-10" d="M1291.84,1249.11h-6.59v-54.28c0-10.11,5.3-20,14.92-27.94,8.59-7.05,19.2-11.27,28.38-11.27h217.22v6.59H1328.55c-14.49,0-36.71,14.61-36.71,32.62Z"/><path class="cls-12" d="M381.85,1350.44H303.21a9.45,9.45,0,0,1-9.45-9.45v-46.43a9.45,9.45,0,0,1,9.45-9.45h78.64a9.45,9.45,0,0,1,9.45,9.45V1341A9.45,9.45,0,0,1,381.85,1350.44Zm-69.19-18.89H372.4V1304H312.66Z"/><polygon class="cls-22" points="312.64 1285.11 312.66 1304.01 371.94 1304.01 371.94 1285.11 312.64 1285.11"/><polygon class="cls-23" points="192 1380.17 195.79 1496.37 489.27 1496.37 493.06 1380.17 192 1380.17"/><polygon class="cls-24" points="492.41 1400.02 493.06 1380.17 192 1380.17 192.65 1400.02 492.41 1400.02"/><polygon class="cls-12" points="502.13 1391.34 182.93 1391.34 180.36 1360.01 504.7 1360.01 502.13 1391.34"/><polygon class="cls-8" points="183.93 1324.66 501.13 1324.66 504.7 1360.81 180.36 1360.81 183.93 1324.66"/><rect class="cls-22" x="229.24" y="1357.17" width="37.51" height="44.18" rx="4.66"/><rect class="cls-22" x="418.31" y="1357.17" width="37.51" height="44.18" rx="4.66"/><rect class="cls-8" x="1413.14" y="1318.91" width="96.82" height="172.92" rx="7.05"/><path class="cls-22" d="M1502.91,1495.83H1420.2a11.07,11.07,0,0,1-11.06-11V1326a11.07,11.07,0,0,1,11.06-11.06h82.71a11.07,11.07,0,0,1,11,11.06v158.81A11.07,11.07,0,0,1,1502.91,1495.83Zm-82.71-172.92a3.06,3.06,0,0,0-3.06,3.06v158.81a3.06,3.06,0,0,0,3.06,3h82.71a3.06,3.06,0,0,0,3-3V1326a3.06,3.06,0,0,0-3-3.06Z"/><rect class="cls-23" x="1429.05" y="1335.75" width="65.02" height="29.17" rx="3.19"/><circle class="cls-12" cx="1461.55" cy="1425.3" r="26.67"/><rect class="cls-8" x="1455.69" y="1403.89" width="11.74" height="42.83" rx="3.45"/><rect class="cls-22" x="1429.05" y="1377.05" width="21.39" height="9.45" rx="4.64"/><rect class="cls-12" x="1472.67" y="1377.05" width="21.39" height="9.45" rx="4.64"/><path class="cls-12" d="M1444.79,1469.55a7.2,7.2,0,1,1-7.2-7.2A7.2,7.2,0,0,1,1444.79,1469.55Z"/><path class="cls-12" d="M1468.75,1469.55a7.2,7.2,0,1,1-7.2-7.2A7.2,7.2,0,0,1,1468.75,1469.55Z"/><path class="cls-12" d="M1492.71,1469.55a7.2,7.2,0,1,1-7.2-7.2A7.2,7.2,0,0,1,1492.71,1469.55Z"/><path class="cls-23" d="M1256.49,1492.6h-50.24a2.77,2.77,0,0,1-2.78-2.77h0a2.77,2.77,0,0,1,2.78-2.77h50.24Z"/><polygon class="cls-22" points="1349.34 1495.5 1221.81 1496.5 1221.81 1483.16 1349.34 1484.16 1349.34 1495.5"/><path class="cls-23" d="M1236.88,1479.62l-50.25-.58a2.78,2.78,0,0,1-2.74-2.81h0a2.78,2.78,0,0,1,2.8-2.74l50.25.59Z"/><polygon class="cls-12" points="1329.68 1483.59 1202.15 1483.11 1202.3 1469.78 1329.82 1472.26 1329.68 1483.59"/><rect class="cls-22" x="1448.95" y="1464.76" width="17.5" height="9.59"/><rect class="cls-12" x="1472.71" y="1464.76" width="17.5" height="9.59"/><path class="cls-25" d="M1332,1493c-6.23,0-10.56-.17-11.12-.19l.25-6c.44,0,44.8,1.74,59.29-6.11,24.55-13.29,40.8-14.32,45.19-14.32l28.79.42-.09,6-28.74-.42c-2.83,0-18.38.66-42.29,13.6C1372.07,1492.08,1346.73,1493,1332,1493Z"/><path class="cls-12" d="M1326.14,1481.24c-2.8,0-4.53-.07-4.85-.08l.26-6c.37,0,37.91,1.47,63.58-11,31.95-15.48,43.36-13,49.48-11.7l1,.2a88.75,88.75,0,0,1,25.53,9c6.82,3.43,11.75,5.92,23.55,5.38l.28,6c-13.39.61-19.48-2.46-26.53-6a82.32,82.32,0,0,0-24-8.42l-1.07-.22c-5-1.09-15.5-3.35-45.6,11.23C1366.06,1480.11,1337.46,1481.24,1326.14,1481.24Z"/><rect class="cls-2" x="1498.26" y="163.22" width="21.71" height="150.5"/><circle class="cls-3" cx="1508.69" cy="447.74" r="52.68"/><path class="cls-17" d="M1645.34,463.26a136.7,136.7,0,0,0-273.29,0Z"/><path class="cls-26" d="M1439.78,408.24c16.23-51.71,30.78-54.51,45.57-75.86-71.35,14.68-111.65,70.94-113.3,130.88h61.36C1433.54,444.59,1434.37,425.48,1439.78,408.24Z"/><path class="cls-17" d="M1498.81,295.38h19.78A13.45,13.45,0,0,1,1532,308.83v38.23a0,0,0,0,1,0,0h-46.68a0,0,0,0,1,0,0V308.83A13.45,13.45,0,0,1,1498.81,295.38Z"/><path class="cls-3" d="M1508.69,577.53a4,4,0,0,1-4-4V531a4,4,0,0,1,8,0v42.51A4,4,0,0,1,1508.69,577.53Z"/><path class="cls-3" d="M1446.41,553.35a4,4,0,0,1-3-6.65l28-31.66a4,4,0,0,1,6,5.29l-28,31.67A4,4,0,0,1,1446.41,553.35Z"/><path class="cls-3" d="M1571,553.35a4,4,0,0,1-3-1.35l-28-31.67a4,4,0,0,1,6-5.29l28,31.66a4,4,0,0,1-3,6.65Z"/><path class="cls-3" d="M1914.2,544.78a6,6,0,1,1,6-6v0A6,6,0,0,1,1914.2,544.78Z"/><path class="cls-3" d="M1914.2,651.52a6,6,0,0,1-6-6v-.12a6,6,0,1,1,12,0v.12A6,6,0,0,1,1914.2,651.52Zm0-26.69a6,6,0,0,1-6-6v-.12a6,6,0,1,1,12,0v.12A6,6,0,0,1,1914.2,624.83Zm0-26.68a6,6,0,0,1-6-6V592a6,6,0,0,1,12,0v.12A6,6,0,0,1,1914.2,598.15Zm0-26.68a6,6,0,0,1-6-6v-.12a6,6,0,0,1,12,0v.12A6,6,0,0,1,1914.2,571.47Z"/><path class="cls-3" d="M1914.2,678.13a6,6,0,0,1-2.49-11.48,6,6,0,0,1,8.49,5.43v0A6,6,0,0,1,1914.2,678.13Z"/><path class="cls-3" d="M1889.44,678.13h-.11a6,6,0,0,1,0-12h.11a6,6,0,0,1,0,12Zm-24.81,0h-.11a6,6,0,0,1,0-12h.11a6,6,0,0,1,0,12Zm-24.81,0h-.11a6,6,0,0,1,0-12h.11a6,6,0,0,1,0,12Zm-24.81,0h-.11a6,6,0,0,1,0-12h.11a6,6,0,0,1,0,12Zm-24.81,0h-.11a6,6,0,0,1,0-12h.11a6,6,0,0,1,0,12Zm-24.81,0h-.11a6,6,0,0,1,0-12h.11a6,6,0,0,1,0,12Zm-24.81,0h-.11a6,6,0,0,1,0-12h.11a6,6,0,0,1,0,12Zm-24.81,0h-.11a6,6,0,0,1,0-12h.11a6,6,0,0,1,0,12Zm-24.81,0h-.11a6,6,0,0,1,0-12h.11a6,6,0,0,1,0,12Zm-24.81,0H1666a6,6,0,0,1,0-12h.11a6,6,0,0,1,0,12Zm-24.81,0h-.11a6,6,0,0,1,0-12h.11a6,6,0,0,1,0,12Zm-24.81,0h-.11a6,6,0,0,1,0-12h.11a6,6,0,0,1,0,12Zm-24.81,0h-.11a6,6,0,0,1,0-12h.11a6,6,0,0,1,0,12Zm-24.81,0h-.11a6,6,0,0,1,0-12h.11a6,6,0,0,1,0,12Zm-24.81,0H1542a6,6,0,0,1,0-12h.11a6,6,0,0,1,0,12Zm-24.81,0h-.11a6,6,0,0,1,0-12h.11a6,6,0,0,1,0,12Z"/><path class="cls-3" d="M1492.43,678.16a6,6,0,0,1-6-6,6,6,0,1,1,12-.06,6,6,0,0,1-3.53,5.48A5.82,5.82,0,0,1,1492.43,678.16Z"/><path class="cls-3" d="M1492.43,1114.32a6,6,0,0,1-6-6v-.12a6,6,0,0,1,12,0v.12A6,6,0,0,1,1492.43,1114.32Zm0-25.66a6,6,0,0,1-6-6v-.11a6,6,0,0,1,12,0v.11A6,6,0,0,1,1492.43,1088.66Zm0-25.65a6,6,0,0,1-6-6v-.12a6,6,0,0,1,12,0v.12A6,6,0,0,1,1492.43,1063Zm0-25.66a6,6,0,0,1-6-6v-.11a6,6,0,0,1,12,0v.11A6,6,0,0,1,1492.43,1037.35Zm0-25.65a6,6,0,0,1-6-6v-.12a6,6,0,0,1,12,0v.12A6,6,0,0,1,1492.43,1011.7Zm0-25.66a6,6,0,0,1-6-6v-.11a6,6,0,0,1,12,0V980A6,6,0,0,1,1492.43,986Zm0-25.65a6,6,0,0,1-6-6v-.11a6,6,0,0,1,12,0v.11A6,6,0,0,1,1492.43,960.39Zm0-25.65a6,6,0,0,1-6-6v-.12a6,6,0,0,1,12,0v.12A6,6,0,0,1,1492.43,934.74Zm0-25.66a6,6,0,0,1-6-6V903a6,6,0,0,1,12,0v.11A6,6,0,0,1,1492.43,909.08Zm0-25.65a6,6,0,0,1-6-6v-.12a6,6,0,1,1,12,0v.12A6,6,0,0,1,1492.43,883.43Zm0-25.66a6,6,0,0,1-6-6v-.11a6,6,0,0,1,12,0v.11A6,6,0,0,1,1492.43,857.77Zm0-25.65a6,6,0,0,1-6-6V826a6,6,0,0,1,12,0v.12A6,6,0,0,1,1492.43,832.12Zm0-25.66a6,6,0,0,1-6-6v-.11a6,6,0,0,1,12,0v.11A6,6,0,0,1,1492.43,806.46Zm0-25.65a6,6,0,0,1-6-6v-.12a6,6,0,1,1,12,0v.12A6,6,0,0,1,1492.43,780.81Zm0-25.66a6,6,0,0,1-6-6V749a6,6,0,0,1,12,0v.11A6,6,0,0,1,1492.43,755.15Zm0-25.65a6,6,0,0,1-6-6v-.11a6,6,0,0,1,12,0v.11A6,6,0,0,1,1492.43,729.5Zm0-25.65a6,6,0,0,1-6-6v-.12a6,6,0,1,1,12,0v.12A6,6,0,0,1,1492.43,703.85Z"/><path class="cls-3" d="M1492.43,1139.91a6,6,0,1,1,6-6.05v.05A6,6,0,0,1,1492.43,1139.91Z"/><path class="cls-23" d="M1689.56,1415.65s-34.74,38.73-45.39,42.23-38.31,3.76-46.3,12.88-8.08,19.49-6.08,25.8h162.74s17-24.24-9-77.74Z"/><path class="cls-27" d="M1745.57,1418.82l-27.82-1.58a137.21,137.21,0,0,1-16.7,44.27,218.22,218.22,0,0,1-25.57,35h79S1771.57,1472.32,1745.57,1418.82Z"/><path class="cls-23" d="M2069.68,1347.7s44.75-25.31,61.55-22.3c0,0,14.91,6.18,15.65,12.57s4.16,34.71,6.48,73.25c2.14,35.68-.38,69.43-18.83,84.17l-13.89-1.79s-20.72-4-19.5-34.87-18.26-49.27-23.06-51.31Z"/><path class="cls-27" d="M2120.64,1493.6l.86.11a421.18,421.18,0,0,0-2.24-48.8,326.21,326.21,0,0,0-31-106.79c-10.57,5-18.63,9.58-18.63,9.58l8.4,59.72c4.8,2,24.29,20.41,23.06,51.31S2120.64,1493.6,2120.64,1493.6Z"/><path class="cls-28" d="M1852.15,919.16c-40.34-27.87-62.88,19.65-84.73,46.06-23,29.16-45.06,63.3-69.22,91.48l-146.77-26c-2.88-.39-38.84,10.46-24.2,20.17,40.34,26.75,169,73.69,169,73.69,21,9.68,30.12.13,37.92-6.32,37.94-31.4,67.12-69.26,94.85-104.51C1849.52,986.43,1890,950.24,1852.15,919.16Z"/><path class="cls-29" d="M1778.94,1070.9c-10.7-4.87-21.27-10.13-31.86-15.25s-21.1-10.78-30.58-18c-.62-.47-1.21-1-1.78-1.47l-1.56,2a26.68,26.68,0,0,1,6.27,9.3c3.76,9.31,3.23,28.45-4.21,35.53-6.18,5.88-19.37,8.47-41.55,6.05-28.61-3.12-118.29-26.4-121-27.05-8.4.54-16.69-.06-25-3.33-9.85-3.9-19.92-7.53-29.26-12.58a86.66,86.66,0,0,1-33.62-1,17.28,17.28,0,0,1-6.91-3.35c4,12.2,35.07,12.1,36.68,11.66.63-.17,4.22-.39,8.52-.61l29.16,11.88a44.17,44.17,0,0,0,8.12,2.45,20.46,20.46,0,0,0,12.59-1.47c54.68,27.88,143.23,58.81,143.23,58.81,21,9.68,30.12.13,37.92-6.32a430.89,430.89,0,0,0,47.18-46.21Z"/><path class="cls-3" d="M1775.33,1083.63c18-21.5,36.38-47.93,53.7-70,20.49-27.25,60.93-63.44,23.12-94.52-40.34-27.87-61.12,8.89-83,35.29-17,21.67-39.61,58-57.32,79.16C1716.84,1037.8,1759.65,1071.83,1775.33,1083.63Z"/><path class="cls-16" d="M1852.15,919.16c-29.5-20.38-48.54-6.2-65.19,13.22-3.44,22.2-12,42.35-23.63,61.68-10.72,17.86-22.38,35.82-35.8,52.15,15.31,12.18,37.46,29.64,47.8,37.42,18-21.5,36.38-47.93,53.7-70C1849.52,986.43,1890,950.24,1852.15,919.16Z"/><path class="cls-8" d="M1908.15,1168.24l-228.4-4.63-9.06-.2a46.73,46.73,0,0,0-45.66,59.46l50.65,201.1,73.69-2.42-18-145.23,160.14,34.53Z"/><path class="cls-13" d="M1908.15,1168.24l-38-15.36c-10.68,11.91-28.92,27.22-44.38,32.27-32.65,10.68-60.71,16.06-94.6,15.7-35.59-.37-71.26-1.58-106.86-.51a46.51,46.51,0,0,0,.74,22.53l49.53,203.2,74.81-4.52-18-145.23,160.14,34.53Z"/><path class="cls-8" d="M2077,1341.41l-101.13,24.74,54.33-65.08c13.52-18.58,45.18-67.78,15.6-132.86l-156.26,16.14-81,243.8a48.27,48.27,0,0,0,60.74,65.35l214.67-78.4Z"/><path class="cls-28" d="M1739.17,757.69c-22.84,4.13-62.37,32.93-67.11,58.64-1.62,8.76-.94,31.42.07,35.65s7.78,15,7.78,15-4.77,36.65-2.47,39.35,13.55.1,13.55.1,19.87,34.28,24.09,37.46c11.7,8.81,28.15-4.18,33.17-8.3,2.68-2.2,6.54-5.58,11-9.59l34.14,21.33,45.9-61.09-32.62-21.64c.1-15.47-.57-55.54-7.4-66.73C1791.29,784.77,1762,753.57,1739.17,757.69Z"/><path class="cls-30" d="M1772.26,915.36c-1.45-6.07-2.93-12.27-5.51-17.34-1,1-2.18,2.47-2.41,2.75a152.68,152.68,0,0,0-9.23,14.35c-.38.88-.77,1.76-1.17,2.63-6.46,13.92-17,25.54-31.7,29,10.44,1.26,22-7.84,26-11.17,2.68-2.2,6.54-5.58,11-9.59l15.38,9.61C1775,928.78,1773.78,921.67,1772.26,915.36Z"/><path class="cls-31" d="M1671.09,809.71c-.21,4.43-9,19.68,2.11,17.95,9.46-1.47,22.78-5.66,29.45-3.16s21.79,21.46,28.47,21,14.64-7.39,17-8.61,7.16-8.38,15.85,6.75c12.07,21,43.54,21,43.54,21s1.51-22.27,3.28-30.34,9.44-40.41-22.13-63.35-67.22-18.13-84.53-5.57S1671.79,794.38,1671.09,809.71Z"/><path class="cls-23" d="M1764.62,826c5.27,2.35,19.53,11.48,24.71,14.1,4.22,2.12,16.56,5,22.79,5,1.19-5.35.31-11.25.75-16.26,0,0-24.48-6.85-24.09-8.61.26-1.2,27.13-3.39,27.34-5,1.16-9.17-.59-24.76-27.48-44.3-31.57-22.93-67.22-18.13-84.53-5.57s-32.32,29-33,44.37c-.21,4.43-9,19.68,2.11,17.95,9.46-1.47,21.82-.62,28.48,1.88C1704.1,830.45,1756.46,822.33,1764.62,826Z"/><path d="M1746.13,843.94a16.6,16.6,0,0,1,8.29-15c2.82-1.58,6.07-2.29,8.83.07,6.42,5.49,10.58,15.5,7.71,21.09s-11.89,22.65-19.28,15.76C1747.61,862.05,1746.4,853,1746.13,843.94Z"/><path class="cls-28" d="M1742.14,842.55a16.59,16.59,0,0,1,8.29-15c2.82-1.58,6.08-2.29,8.83.07,6.43,5.49,10.58,15.5,7.72,21.08s-9.83,21.39-15.94,16.75C1746.6,862.08,1742.41,851.63,1742.14,842.55Z"/><path class="cls-3" d="M1979,1001.69c38.16,71,62.72,148.21,67.85,191.53l-163.43,28.52s-19.72-55.14-37.47-87.42c-40.23-73.14-50.51-63.11-63.44-101.9-8.07-24.2-12.85-51.91-3.32-89,8.88-34.52,26.61-58.73,62.21-57C1845.85,886.6,1920.44,892.84,1979,1001.69Z"/><path class="cls-16" d="M1979,1001.69c-36.12-67.18-78.35-95.26-106.45-107,13.59,8.4,26.16,18.35,36.51,30.57a144.36,144.36,0,0,1,23.5,38.85c6.67,16.1,9.13,34.47,10.12,51.74.94,16.47-.1,33.22-1.39,49.66-1.38,17.51-3.64,35.55-9.49,52.2-11.64,33.08-31.59,61.73-54.21,88.37,3.62,9.45,5.83,15.64,5.83,15.64l163.43-28.52C2041.69,1149.9,2017.13,1072.66,1979,1001.69Z"/><path class="cls-16" d="M1902.09,983.68c-.09-.57-7.15-24.35-8.29-26.21-.29-.45-1.32-1.88-1.73-2.48a40.82,40.82,0,0,0-4.51-4.31,15.44,15.44,0,0,1-5.08-8c-2.35.75-4.69,1.54-7,2.39q-2.29.85-4.57,1.76l-1.07.44c-3.08,1.4-6.15,2.79-9.18,4.31A196.51,196.51,0,0,0,1842.48,962c-3,1.91-5.86,3.91-8.7,6-.5.36-1,.74-1.49,1.11-1.11.89-2.21,1.78-3.3,2.69a140.81,140.81,0,0,0-14.43,14c-1.13,1.26-2.19,2.58-3.3,3.86l-.34.42-.4.54a98.14,98.14,0,0,0-5.42,8.28c-1.41,2.41-2.47,6.29-4.25,8.42-.11.29-.22.58-.32.87-1.09,8.38-2.33,16.75-4,25a17.75,17.75,0,0,1-9.24,11.79c11.19,25.11,23.46,25.39,58.68,89.43,5.7,10.37,11.6,23.08,17,35.58q1.6-2.76,3.17-5.55,5-9,9.54-18.32,2.33-4.82,4.49-9.72c.31-.7.6-1.41.92-2.1h0a40.12,40.12,0,0,0,1.52-3.74C1930.64,965.7,1908.86,975.38,1902.09,983.68Z"/><path class="cls-8" d="M1890.3,911.1c-39.37-27.2-84.73-24.55-96.42,27.3-5.24,23.26-5.78,67.91-5.78,67.91s-13,11.38-12.77,12.23c21.78,66.57,52,85.93,69.38,118.61,17.27,32.53,37,96.68,37,96.68l172-20.44c-3.33-45.29-26.92-124.7-60.64-190.41C1985.74,1008.76,1949.47,952,1890.3,911.1ZM1949.2,1138c-26.18,11.16-83.91-57.68-115.1-99.62-24.71-33.24-30.4-95.51-14.4-113.38,5.79-6.45,20.38-23.88,52.82-9.84,42,18.15,72.27,69.27,84.75,87.3C1969.32,1021,1971,1128.68,1949.2,1138Z"/><path class="cls-13" d="M2077,1341.41l-101.13,24.74,54.33-65.08c13-17.87,42.76-64,18.74-125.41-.09,1-.2,2.08-.3,3.13-9.19-45.2-29.3-104.65-55.55-155.81a210.16,210.16,0,0,0-13.1-21.07c2.92,11.45,4.66,23.29,6.37,34.53s3.24,22.53,6.06,33.54c3.72,14.52,9.94,28.52,15,42.6,11.2,31.1,20.84,63.65,20,97.05-.44,16.87-3.23,33.52-9.81,49.09a187.12,187.12,0,0,1-22.22,38.22c-4.9,6.67-10,13.19-15.16,19.69l-6.58,8.3c-1.09,1.38-2.18,2.75-3.26,4.13l-1.38,1.77c-2.28,2.91,0-.15.37-.49-2.43,2-4.3,5.68-6.14,8.23s-3.77,5.3-5.54,8c-3,4.68-5.7,9.56-8.25,14.51-11.29,21.94-19.76,45.27-32.23,66.61-15.31,26.17-38.06,51.27-70.6,52-12,.25-23.84-2.74-35.38-6.29a48.28,48.28,0,0,0,58.09,20.12l214.67-78.4s1.55-20.93,1.55-30.29C2085.49,1350.21,2077,1341.41,2077,1341.41Z"/><path class="cls-3" d="M1575.63,1189.15l-111,46.7a9.35,9.35,0,0,1-12.25-5l-28.15-66.93a9.35,9.35,0,0,1,5-12.25l111-46.7a9.35,9.35,0,0,1,12.25,5l28.15,66.93A9.35,9.35,0,0,1,1575.63,1189.15Z"/><circle class="cls-32" cx="1502.41" cy="1170.41" r="31.17" transform="translate(-148.68 2119.62) rotate(-67.81)"/><path class="cls-23" d="M1512.52,1182.4a4.54,4.54,0,1,1-6-2.35A4.54,4.54,0,0,1,1512.52,1182.4Z"/><path class="cls-23" d="M1506.58,1168.6a4.54,4.54,0,1,1-6-2.35A4.54,4.54,0,0,1,1506.58,1168.6Z"/><path class="cls-23" d="M1500.64,1154.8a4.54,4.54,0,1,1-6-2.35A4.55,4.55,0,0,1,1500.64,1154.8Z"/><path class="cls-28" d="M1871.74,936c-47.77-4.29-49.58,41.92-62.89,74.39-14.82,38.82-29.69,74.21-53.27,108.7l-151.77,63.24c-10.27,3.94-6.34,31.42,6.5,31.83,26.46.84,181.21-25.26,181.21-25.26,11-1.52,19-11.17,24.93-20.07,29-41.66,54.36-85,72.65-132.82C1901,1004.22,1922.2,945.79,1871.74,936Z"/><path class="cls-29" d="M1871.74,936c-47.77-4.29-49.58,41.91-62.89,74.39-8,21-16,41-25.46,60.35a18.13,18.13,0,0,1,4.42,8.37c.28,1.28,47,24.2,43.67,35.11-6.59,21.72-56.21,52.62-76.3,60.77-17.29,7-124.62,36.31-129.78,38.44,63.24-5.82,166.12-24.53,166.12-24.53,11-1.52,19-11.17,24.93-20.07,29-41.66,54.36-85,72.65-132.82C1901,1004.22,1922.2,945.8,1871.74,936Z"/><path class="cls-3" d="M1860.51,1115.44c3.57-8,36.92-84.39,40.44-92.53,24.85-57.49,9.76-95.1-31.94-106.47-47.77-4.29-54,31-66.39,75.44-2.13,7.64-26.18,70.35-29.48,77.64C1785.53,1076.39,1855.92,1114.1,1860.51,1115.44Z"/><path class="cls-33" d="M1903.56,939.33a137.54,137.54,0,0,1-8.71,27.17c-13.51,31.19-32.66,60.11-53.44,86.91a397.05,397.05,0,0,1-31.14,36.11c22.78,12.13,47.58,25.14,50.24,25.92,3.57-8,36.92-84.39,40.44-92.53C1916.66,986.57,1916.4,958.18,1903.56,939.33Z"/><path class="cls-28" d="M1542.19,1154.47c8.66,1,13.63,7.48,37.32,9.57s52.33,12.67,54.8,24.71,3.69,16-4.42,22.1c-13.07,9.79-45.67,14.89-62.14,16.91a42,42,0,0,1-18.73-2l-30.35-12.5,33.41-14.09s19.7-6.3,9.26-15.7c-7.36-6.63-10.72-5.58-18.34-10.6C1527.42,1162.61,1539.14,1154.12,1542.19,1154.47Z"/><path class="cls-28" d="M1518.44,1015.07c-2-10.47-14-5.66-21.15-4.78-5.84,1-11.77,2.08-17.6,3.2a9,9,0,0,0-3.52,1.64c-5,3.91-9.87,8.07-14.73,12.12-5.22,6.15-2.74,16.19-3.33,23.81.2,7.11,11.1,8.51,12.94,1.48a123.07,123.07,0,0,0,3.07-15c2.44-1.87,8.26-6.43,10.6-8.24,5.2-.93,10.49-1.9,15.67-2.9C1507.24,1024.69,1519.58,1025.2,1518.44,1015.07ZM1483,1029.65h0Zm3-1.28h0C1486.06,1028.33,1486.09,1028.31,1486,1028.37Z"/><path class="cls-29" d="M1485.28,1023.59c-1.76-.36-3.52-.66-5.28-1l-1.07-.22-.64,0a102.73,102.73,0,0,0-10.38-.47c-2.17,1.8-4.32,3.61-6.47,5.4-5.22,6.15-2.74,16.19-3.33,23.81.2,7.11,11.1,8.51,12.94,1.48a123.07,123.07,0,0,0,3.07-15c2.44-1.87,8.26-6.43,10.6-8.24,4.82-.86,9.7-1.76,14.51-2.68C1494.59,1025.62,1489.94,1024.55,1485.28,1023.59Z"/><path class="cls-29" d="M1483,1029.65h0Z"/><path class="cls-29" d="M1486,1028.37h0C1486.06,1028.33,1486.09,1028.31,1486,1028.37Z"/><rect class="cls-34" x="1408.31" y="995.94" width="3.54" height="23.09" transform="translate(-74.47 1901.62) rotate(-66.61)"/><polygon class="cls-34" points="1389.86 999.06 1391.38 1000.76 1399.37 1004.22 1400.36 1001.92 1392.37 998.47 1390.1 998.51 1389.86 999.06"/><rect class="cls-34" x="1430.11" y="1001.95" width="4.99" height="30.58" transform="translate(-69.85 1928.15) rotate(-66.6)"/><rect class="cls-34" x="1446.11" y="1019.8" width="6.03" height="9.15" transform="translate(-66.44 1947.62) rotate(-66.61)"/><path class="cls-35" d="M1463.51,1023a27.6,27.6,0,0,1-5.23-4l-4.48-.13-5.53,12.79,3.15,3.18a27.86,27.86,0,0,1,6.53,1Z"/><path class="cls-35" d="M1460,1022.9l-4.5,10.4s9.3,8.23,9.39,8.46l57,24.67,6.3-2.49,3.9-9c-1-2.46-1.53-3.84-2.5-6.3l-57-24.68C1472.53,1024,1459.93,1022.81,1460,1022.9Z"/><path class="cls-22" d="M1513.87,1063l8,3.47,6.3-2.49,3.9-9c-1-2.46-1.53-3.84-2.5-6.3l-8-3.47Z"/><path class="cls-36" d="M1512.85,1052h0a4,4,0,0,1-5.25,2.08l-19.74-8.54a4,4,0,0,1-2.07-5.25h0a4,4,0,0,1,5.24-2.07l19.74,8.54A4,4,0,0,1,1512.85,1052Z"/><path class="cls-28" d="M1559.91,1034.63l-43.12-25.37a9.6,9.6,0,0,0-10.9,1.23l-21.3,18.71,8.66,3.74c-9.4.51-23.68.58-29.15.4-6.84-.24-6.6,6.2-6.6,6.2.7,14.48,35.43,14.38,37.14,13.91.63-.17,4.22-.39,8.52-.61l29.16,11.88a44.17,44.17,0,0,0,8.12,2.45,20.9,20.9,0,0,0,24.47-16.3C1566.87,1041.49,1568.48,1038.91,1559.91,1034.63Z"/><path class="cls-28" d="M1559.91,1034.63l-43.12-25.37a9.6,9.6,0,0,0-10.9,1.23l-21.3,18.71,8.66,3.74c-9.4.51-23.68.58-29.15.4-6.84-.24-6.6,6.2-6.6,6.2.7,14.48,35.43,14.38,37.14,13.91.63-.17,4.22-.39,8.52-.61l29.16,11.88a44.17,44.17,0,0,0,8.12,2.45,20.9,20.9,0,0,0,24.47-16.3C1566.87,1041.49,1568.48,1038.91,1559.91,1034.63Z"/><path class="cls-29" d="M1553.93,1062.88c-6.23-1.32-12.26-3.91-18.14-6.3-1.68-.68-39.11-10.68-40.63-11.21-.11,0-9.29,1.34-15.53,1.21-20-.4-21.31-6.89-22.11-7.62a5,5,0,0,0,0,.58c.7,14.48,35.43,14.38,37.14,13.91.63-.17,4.22-.39,8.52-.61l29.16,11.88a44.17,44.17,0,0,0,8.12,2.45,20.68,20.68,0,0,0,16.45-3.73C1555.88,1063.27,1554.88,1063.08,1553.93,1062.88Z"/><path class="cls-29" d="M1497,1071.6a6.51,6.51,0,0,1-3.57-2l-7-7.63a6.48,6.48,0,1,1,9.57-8.73l4.41,4.83,6.36-1.46a6.48,6.48,0,0,1,2.9,12.64l-10,2.3A6.33,6.33,0,0,1,1497,1071.6Z"/><path class="cls-29" d="M1498.18,1051.15c-7.74.62-16.5-1-24.26-.61a17.25,17.25,0,0,1-4.28-.33l5.47,9.55a6.49,6.49,0,0,0,4.52,3.36,6.77,6.77,0,0,0,1,.11l15.08.47a6.48,6.48,0,0,0,2.45-12.55Z"/><path class="cls-29" d="M1510.1,1077.06a6.56,6.56,0,0,1-2.64-1.15l-7.16-5.31a6.48,6.48,0,1,1,7.71-10.41l4.59,3.4,5.33-1.53a6.48,6.48,0,1,1,3.57,12.46l-8.4,2.41A6.49,6.49,0,0,1,1510.1,1077.06Z"/><path class="cls-36" d="M1819.3,805.49s-1.92-27.17-13-43.13-35.14-40.83-85.25-35.87c-58.61,5.81-61.74,47.29-62,54.14s-4.12,41.92-4.12,41.92L1636.34,838a1.56,1.56,0,0,0,.51,2.7c4.09,1.38,13,3.32,25.69.3,17.83-4.25,40.47-11.17,74.74-15.56,11.73-1.51,66.66-2,73.38-4.39s14.61-9.76,14.61-9.76l-3-6.59Z"/><path class="cls-37" d="M1822.31,804.73l.24.53c-1.86,1.78-11.55,10.55-30.63,12.69-4.89.55-9.8.9-14.72,1.08-9.43.34-18.87-.45-28.29,0-11.17.49-42.89,3.36-80.69,16.13-19.21,6.5-29.06.92-29.33.79l16-13.36s45.51-11,88.69-11.22c14.9-.09,32-5.81,41-18.74,14.1-20.15,3.47-42.55-12.68-57.36-1.31-1.2-2.67-2.36-4.06-3.48,19.78,7.53,31.57,20.76,38.41,30.61,11.1,16,13,43.13,13,43.13Z"/><path class="cls-37" d="M1779.3,742.41a145.25,145.25,0,0,0-16.2-4.31,156.7,156.7,0,0,0-16.6-2.65,113.5,113.5,0,0,0-33.79,1.17c-1.41.2-2.78.65-4.18,1s-2.8.69-4.14,1.15c-2.68.89-5.39,1.73-8,2.79a70,70,0,0,0-15.24,7.89,48.38,48.38,0,0,0-12.32,12.23,42.87,42.87,0,0,0-6.47,15.78l.49.18a62,62,0,0,1,8.86-13.73,55.11,55.11,0,0,1,12.3-10.14,125,125,0,0,1,14.36-7.48c2.46-1.18,5-2.16,7.56-3.18,1.27-.51,2.56-.85,3.85-1.29a39.53,39.53,0,0,1,3.89-1.15A109.81,109.81,0,0,1,1746.3,738a158.2,158.2,0,0,1,16.52,1.64c5.48.85,11,1.85,16.33,3.24Z"/><rect class="cls-38" y="1496.37" width="2423.05" height="45.68"/><path class="cls-39" d="M607.8,456.92s-1.11-9.8,4.29-17.64c0,0-12.28-48.63,15.59-73.89,0,0,6-6.43,17.53-13.65,0,0,6.16-5.14,8.18-6.57a48.52,48.52,0,0,1,26.34-7.49c13.88.18,29,4.12,30.58,6.12a19.2,19.2,0,0,1,2.3,3.86s15.89,4.76,24.21,17.6c11,17,12.67,26.18,12.67,26.18s13.61,4.54,13.87,5.19c3.91,9.74-8.88,33.34-12.52,38.82S728.08,478.62,668.63,482C605.85,485.58,607.8,456.92,607.8,456.92Z"/><path class="cls-40" d="M749.49,391.44c-1.37,5.72-19.44,40.26-31.44,51-12.84,11.52-30.29,18-47.71,20.48-6.53.93-35.73-.58-39.85-19.22A165.37,165.37,0,0,1,626.66,400c.45-11.56,13.45-38.09,18.55-48.28-51.58,27.66-33.12,87.54-33.12,87.54S608,472.58,670.7,468C734,463.45,752.73,389.1,749.49,391.44Z"/><path class="cls-40" d="M645.34,351.86a94.34,94.34,0,0,0-11.74,24,111.69,111.69,0,0,0-5.27,26,157.4,157.4,0,0,0,.85,26.82c.5,4.47,1.08,8.95,1.65,13.44a69.19,69.19,0,0,1,.75,13.57l-.36,0a73.77,73.77,0,0,0-1.55-13.38c-.81-4.43-1.71-8.87-2.38-13.36a157.29,157.29,0,0,1-2-27.22,77.41,77.41,0,0,1,5.22-27,68.21,68.21,0,0,1,2.78-6.31c1-2.06,2.13-4.07,3.34-6a54.55,54.55,0,0,1,8.5-10.74Z"/><path class="cls-41" d="M704.28,346.35A51.94,51.94,0,0,0,691.33,355a67.47,67.47,0,0,0-5.48,5.48c-1.71,1.93-3.32,3.95-4.83,6a91.29,91.29,0,0,0-7.82,13.34,126.44,126.44,0,0,0-5.88,14.43,83.94,83.94,0,0,0-3.49,15.16,96.75,96.75,0,0,0-.65,15.62c.07,2.63.17,5.27.2,7.94,0,1.34,0,2.66,0,4s0,2.62,0,3.94c.07,5.26.34,10.53.63,15.8l-.35,0c-.72-5.24-1.3-10.49-1.73-15.78-.11-1.32-.2-2.64-.26-4s-.09-2.66-.12-4c-.1-2.61-.29-5.24-.44-7.88a99.6,99.6,0,0,1,.2-16,91.28,91.28,0,0,1,3.11-15.77,108.52,108.52,0,0,1,5.56-15.07,65,65,0,0,1,3.79-7.14,66.4,66.4,0,0,1,4.62-6.66,60.83,60.83,0,0,1,11.54-11.3,42.6,42.6,0,0,1,14.3-7.18Z"/></g><g id="Layer_3" data-name="Layer 3"><rect class="cls-2" x="1690.96" y="75.4" width="450.73" height="450.73" rx="19.9"/><rect class="cls-3" x="1738.63" y="288.53" width="100.87" height="24.47"/><path class="cls-3" d="M2087.24,264.05h-42.48V279h42.48a6.78,6.78,0,0,0,6.78-6.78v-1.39A6.78,6.78,0,0,0,2087.24,264.05Z"/><path class="cls-3" d="M2087.24,322.54h-42.48v14.95h42.48a6.78,6.78,0,0,0,6.78-6.78v-1.39A6.78,6.78,0,0,0,2087.24,322.54Z"/><path class="cls-3" d="M1893.68,295.07a49.36,49.36,0,0,1,1.92-13.62l-47.5,1.2v36.24l47.5,1.2a49.36,49.36,0,0,1-1.92-13.62Z"/><path class="cls-3" d="M1904.84,281.43l-.65,0a49.36,49.36,0,0,0-1.92,13.62v11.4a49.36,49.36,0,0,0,1.92,13.62l.65,0Z"/><path class="cls-3" d="M2033,238h-29a3.19,3.19,0,0,0-3.2,3.19V360.33a3.19,3.19,0,0,0,3.2,3.19h29a3.19,3.19,0,0,0,3.19-3.19V241.21A3.19,3.19,0,0,0,2033,238Z"/><path class="cls-3" d="M1990.35,245l-38.72.7a49.38,49.38,0,0,0-47.44,35.74l.65,0v38.68l-.65,0a49.38,49.38,0,0,0,47.44,35.74l38.72.7Z"/><rect class="cls-17" x="1967.22" y="426.11" width="356.13" height="356.13" rx="17.79"/><path class="cls-3" d="M2151.7,580.42l-7.24,3.1-5.61,10.3c-5.79,2.92-14.19,7.14-14.48,7.14l-63.77,63.78-4-4,33.54-33.55a1.91,1.91,0,0,0,3.7.85l2.7-7.51a1.89,1.89,0,0,0-.77-2.26,1.92,1.92,0,0,0-2.38.26l-40.85,40.85a1.91,1.91,0,0,0,0,2.71l5.4,5.4-10.77,10.77v11.92l12.2,12.2h11.92l10.87-10.87,66.38-66.38c-.06-.06,4.25-8.56,7.19-14.43l10.25-5.66,3.1-7.24Z"/><polygon class="cls-3" points="2243.45 506.77 2242.7 506.01 2238.94 507.41 2228.64 517.71 2227.99 517.07 2202.13 542.92 2201.22 542.02 2165.54 577.7 2164.89 577.06 2161.06 580.9 2168.34 588.62 2172.39 584.56 2171.74 583.91 2207.43 548.23 2206.53 547.32 2232.39 521.46 2231.74 520.81 2242.04 510.51 2243.45 506.77"/><circle class="cls-2" cx="2383.75" cy="415.63" r="127.99"/><path class="cls-3" d="M2368.32,465.55a11.8,11.8,0,0,1-8.37-3.47l-45.3-45.29A11.84,11.84,0,0,1,2331.4,400L2368.32,437l67.79-67.79a11.84,11.84,0,0,1,16.75,16.75l-76.16,76.16A11.84,11.84,0,0,1,2368.32,465.55Z"/></g></g></svg>