<svg xmlns="http://www.w3.org/2000/svg" viewBox="0 0 548.42 542.68"><defs><style>.cls-1{fill:#ea0c0c;}.cls-1,.cls-2{stroke:#8c1313;stroke-miterlimit:10;stroke-width:13.64px;}.cls-2{fill:none;}</style></defs><g id="Layer_2" data-name="Layer 2"><g id="Layer_3" data-name="Layer 3"><path class="cls-1" d="M244.86,308.61a26.59,26.59,0,0,0-.47,4.81V439.79h60.32V313.42a24.91,24.91,0,0,0-.47-4.81A80,80,0,0,0,306.4,161v73.37H242.69V161a80,80,0,0,0,2.17,147.63Z"/><path class="cls-1" d="M283.86,439.79V328.46c0-4.36-4.32-7.89-9.64-7.89s-9.64,3.53-9.64,7.89V439.79Z"/><path class="cls-2" d="M333.45,238.35a58.56,58.56,0,0,1-59.91,57.17"/><path class="cls-1" d="M496.51,274.15c0-6.75-.36-13.41-.95-20l44.53-11.66-20-76.25L474.73,178.1a222.9,222.9,0,0,0-36.81-54.31L467,86l-62.4-48.17L375.13,76.1a220.09,220.09,0,0,0-61.5-20.7V6.82H234.79V55.4a220.7,220.7,0,0,0-58.64,19.24L147.2,36,84.08,83.26l28.64,38.21a222.26,222.26,0,0,0-28.84,37.79L39.6,142.94l-27.24,74,43.43,16a222.35,222.35,0,0,0-3.88,41.23c0,4.87.22,9.69.52,14.5L8.33,300.18l20,76.29,43.12-11.31a222.14,222.14,0,0,0,36.77,56.74L81.37,456.64l62.41,48.18,26.41-34.2a221.14,221.14,0,0,0,64.6,22.25v43h78.84v-43a220.32,220.32,0,0,0,61.68-20.77l25.91,34.59,63.1-47.26L438,424.35a222.69,222.69,0,0,0,29.15-39.94l41.63,15.31,27.24-74L493.57,310.1A224.16,224.16,0,0,0,496.51,274.15ZM274.22,422.71A151.37,151.37,0,1,1,425.58,271.34,151.37,151.37,0,0,1,274.22,422.71Z"/></g></g></svg>