<svg xmlns="http://www.w3.org/2000/svg" viewBox="0 0 771.81 771.81"><defs><style>.cls-1{fill:#ea0c0c;}.cls-2{fill:#f9f9f9;}</style></defs><g id="Layer_2" data-name="Layer 2"><g id="Layer_3" data-name="Layer 3"><circle class="cls-1" cx="385.9" cy="385.9" r="385.9"/><path class="cls-2" d="M361.53,416.85a22.61,22.61,0,0,0-.39,4V525.8h50.09V420.85a20.87,20.87,0,0,0-.39-4,66.42,66.42,0,0,0,1.8-122.6v60.93H359.73V294.25a66.42,66.42,0,0,0,1.8,122.6Z"/><path class="cls-2" d="M393.91,525.8V433.34c0-3.62-3.58-6.55-8-6.55s-8,2.93-8,6.55V525.8Z"/><path class="cls-2" d="M435.11,358.5A48.64,48.64,0,0,1,385.35,406"/><path class="cls-2" d="M570.52,388.24c0-5.61-.29-11.14-.78-16.62l37-9.67-16.59-63.34-37.7,9.86a185.06,185.06,0,0,0-30.56-45.11L546.05,232l-51.83-40-24.5,31.75a183.05,183.05,0,0,0-51.08-17.18V166.22H353.17v40.35a183,183,0,0,0-48.7,16l-24.05-32.1L228,229.7l23.79,31.74a183.64,183.64,0,0,0-23.95,31.38l-36.78-13.55-22.62,61.44L204.51,354a183.94,183.94,0,0,0-3.23,34.24c0,4,.18,8.05.43,12l-36.62,9.57,16.58,63.36,35.81-9.39A184.72,184.72,0,0,0,248,511l-22.27,28.84,51.83,40,21.93-28.41a183.33,183.33,0,0,0,53.66,18.48v35.71h65.47V569.88a183.28,183.28,0,0,0,51.23-17.24l21.51,28.72,52.41-39.25L522,513a185,185,0,0,0,24.2-33.18l34.58,12.72,22.62-61.42-35.28-13A187.31,187.31,0,0,0,570.52,388.24ZM385.91,511.62A125.72,125.72,0,1,1,511.61,385.9,125.72,125.72,0,0,1,385.91,511.62Z"/></g></g></svg>