<svg xmlns="http://www.w3.org/2000/svg" viewBox="0 0 771.81 771.81"><defs><style>.cls-1{fill:#ea0c0c;}.cls-2{fill:#f9f9f9;}</style></defs><g id="Layer_2" data-name="Layer 2"><g id="Layer_3" data-name="Layer 3"><path class="cls-1" d="M385.91,0C172.78,0,0,172.78,0,385.91s172.78,385.9,385.91,385.9S771.81,599,771.81,385.91,599,0,385.91,0ZM280,552.92c20.09-49.69,40.19-99.37,61.66-152.46l-63-9c30.86-62.07,60.14-120.94,90.18-181.37H482.61L419.35,315.93l73.77,9.27c-69,84.83-132.53,162.41-200,236.54Z"/><path class="cls-2" d="M519.86,310.06C433.62,416.05,354.28,513,270,605.59l-16.38-11c25.1-62.08,50.21-124.15,77-190.48L252,392.82c38.56-77.55,75.14-151.1,112.67-226.6H506.73l-79,132.26Z"/></g></g></svg>