<svg xmlns="http://www.w3.org/2000/svg" viewBox="0 0 403.02 158.94"><defs><style>.cls-1{fill:#900;}</style></defs><g id="Layer_2" data-name="Layer 2"><g id="Layer_1-2" data-name="Layer 1"><polygon class="cls-1" points="248.67 121.54 164.93 121.54 147.59 104.2 148.65 103.14 165.55 120.04 248.67 120.04 248.67 121.54"/><circle class="cls-1" cx="248.53" cy="120.79" r="2.82"/><polygon class="cls-1" points="237.82 130.7 200.44 130.7 191.26 121.52 192.32 120.46 201.06 129.2 237.82 129.2 237.82 130.7"/><path class="cls-1" d="M237.68,132.77a2.82,2.82,0,1,0-2.82-2.82A2.82,2.82,0,0,0,237.68,132.77Z"/><polygon class="cls-1" points="160.7 115.28 159.64 116.34 182.67 139.37 279.48 139.37 296.86 156.75 297.93 155.69 280.1 137.87 183.29 137.87 160.7 115.28"/><path class="cls-1" d="M299.29,154.12a2.82,2.82,0,1,1-4,0A2.82,2.82,0,0,1,299.29,154.12Z"/><polyline class="cls-1" points="0.62 61.44 231.06 61.44 276.52 15.98 351.7 15.98 351.7 17.48 277.14 17.48 231.68 62.94 0 62.94"/><circle class="cls-1" cx="351.56" cy="16.73" r="2.82"/><polygon class="cls-1" points="47.91 62.72 46.85 61.66 73.81 34.7 198.96 34.7 231.59 2.07 330.31 2.07 330.31 3.57 232.21 3.57 199.59 36.2 74.43 36.2 47.91 62.72"/><path class="cls-1" d="M330.17,5.64a2.82,2.82,0,1,0-2.82-2.82A2.82,2.82,0,0,0,330.17,5.64Z"/><polygon class="cls-1" points="224.19 52.24 114.46 52.24 98.21 35.99 99.27 34.93 115.08 50.74 223.57 50.74 251.67 22.64 252.73 23.7 224.19 52.24"/><path class="cls-1" d="M254.09,25.26a2.82,2.82,0,1,0-4,0A2.81,2.81,0,0,0,254.09,25.26Z"/><polygon class="cls-1" points="357.63 121.52 273.89 121.52 256.55 104.19 257.61 103.13 274.51 120.02 357.63 120.02 357.63 121.52"/><circle class="cls-1" cx="357.49" cy="120.77" r="2.82"/><polyline class="cls-1" points="272.77 89.21 287.08 103.52 390.44 103.52 400.2 113.28 399.13 114.34 389.81 105.02 286.45 105.02 271.4 90.56"/><path class="cls-1" d="M398.2,116.33a2.82,2.82,0,1,0,0-4A2.82,2.82,0,0,0,398.2,116.33Z"/><polygon class="cls-1" points="346.78 130.68 309.39 130.68 300.22 121.51 301.28 120.45 310.01 129.18 346.78 129.18 346.78 130.68"/><path class="cls-1" d="M346.64,132.75a2.82,2.82,0,1,0-2.82-2.82A2.82,2.82,0,0,0,346.64,132.75Z"/><polygon class="cls-1" points="257.11 104.85 68.56 104.85 26.72 63.01 27.78 61.95 69.18 103.35 256.49 103.35 285.62 74.22 384.15 74.22 394.85 84.92 393.79 85.98 383.53 75.72 286.24 75.72 257.11 104.85"/><path class="cls-1" d="M392.23,87.34a2.82,2.82,0,1,0,0-4A2.81,2.81,0,0,0,392.23,87.34Z"/><polygon class="cls-1" points="264.56 78.78 177.2 78.78 161.26 62.85 162.32 61.79 177.82 77.28 263.94 77.28 295.66 45.56 296.72 46.62 264.56 78.78"/><path class="cls-1" d="M298.09,48.18a2.82,2.82,0,1,0-4,0A2.82,2.82,0,0,0,298.09,48.18Z"/><polygon class="cls-1" points="275.4 48.89 245.52 48.89 245.52 47.39 274.78 47.39 291.04 31.12 323.01 31.12 323.01 32.62 291.66 32.62 275.4 48.89"/><circle class="cls-1" cx="322.87" cy="31.87" r="2.82"/><polygon class="cls-1" points="315.38 75.61 314.31 74.55 333.75 55.11 353.56 55.11 353.56 56.61 334.38 56.61 315.38 75.61"/><path class="cls-1" d="M353.42,58.68a2.82,2.82,0,1,0-2.82-2.82A2.82,2.82,0,0,0,353.42,58.68Z"/><polygon class="cls-1" points="134.12 92.88 123.31 82.07 46.52 82.07 46.52 80.57 123.94 80.57 135.18 91.82 134.12 92.88"/><circle class="cls-1" cx="134.55" cy="92.25" r="2.82"/><polygon class="cls-1" points="218.53 90.61 158.8 90.61 130.98 62.8 132.04 61.73 159.42 89.11 218.53 89.11 218.53 90.61"/><path class="cls-1" d="M218.39,92.68a2.82,2.82,0,1,0-2.82-2.82A2.82,2.82,0,0,0,218.39,92.68Z"/></g></g></svg>