<svg xmlns="http://www.w3.org/2000/svg" viewBox="0 0 403.01 158.93"><defs><style>.cls-1{fill:#900;}</style></defs><g id="Layer_2" data-name="Layer 2"><g id="Layer_1-2" data-name="Layer 1"><g id="Layer_2-2" data-name="Layer 2"><g id="Layer_1-2-2" data-name="Layer 1-2"><polygon class="cls-1" points="154.34 120.04 237.46 120.04 254.36 103.14 255.42 104.2 238.08 121.54 154.34 121.54 154.34 120.04"/><circle class="cls-1" cx="154.48" cy="120.79" r="2.82"/><polygon class="cls-1" points="165.19 129.2 201.95 129.2 210.69 120.46 211.75 121.52 202.57 130.7 165.19 130.7 165.19 129.2"/><path class="cls-1" d="M165.33,132.77a2.82,2.82,0,1,0-2.82-2.82,2.82,2.82,0,0,0,2.82,2.82Z"/><polygon class="cls-1" points="219.72 137.87 122.91 137.87 105.08 155.69 106.15 156.75 123.53 139.37 220.34 139.37 243.37 116.34 242.31 115.28 219.72 137.87"/><path class="cls-1" d="M103.73,154.11a2.82,2.82,0,1,1,0,4,2.82,2.82,0,0,1,0-4Z"/><polyline class="cls-1" points="403.01 62.94 171.33 62.94 125.87 17.48 51.31 17.48 51.31 15.98 126.49 15.98 171.95 61.44 402.39 61.44"/><circle class="cls-1" cx="51.45" cy="16.73" r="2.82"/><polygon class="cls-1" points="328.58 36.2 203.42 36.2 170.8 3.57 72.7 3.57 72.7 2.07 171.42 2.07 204.05 34.7 329.2 34.7 356.16 61.66 355.1 62.72 328.58 36.2"/><path class="cls-1" d="M72.84,5.64A2.82,2.82,0,1,0,70,2.82a2.82,2.82,0,0,0,2.82,2.82Z"/><polygon class="cls-1" points="150.28 23.7 151.34 22.64 179.44 50.74 287.93 50.74 303.74 34.93 304.8 35.99 288.55 52.24 178.82 52.24 150.28 23.7"/><path class="cls-1" d="M148.94,25.29a2.82,2.82,0,1,0,0-4,2.82,2.82,0,0,0,0,4Z"/><polygon class="cls-1" points="45.38 120.02 128.5 120.02 145.4 103.13 146.46 104.19 129.12 121.52 45.38 121.52 45.38 120.02"/><circle class="cls-1" cx="45.52" cy="120.77" r="2.82"/><polyline class="cls-1" points="131.61 90.56 116.56 105.02 13.2 105.02 3.88 114.34 2.81 113.28 12.57 103.52 115.93 103.52 130.24 89.21"/><path class="cls-1" d="M4.82,116.32a2.82,2.82,0,1,0-4,0,2.82,2.82,0,0,0,4,0Z"/><polygon class="cls-1" points="56.23 129.18 93 129.18 101.73 120.45 102.79 121.51 93.62 130.68 56.23 130.68 56.23 129.18"/><path class="cls-1" d="M56.37,132.75a2.82,2.82,0,1,0-2.82-2.82,2.82,2.82,0,0,0,2.82,2.82Z"/><polygon class="cls-1" points="116.77 75.72 19.48 75.72 9.22 85.98 8.16 84.92 18.86 74.22 117.39 74.22 146.52 103.35 333.83 103.35 375.23 61.95 376.29 63.01 334.45 104.85 145.9 104.85 116.77 75.72"/><path class="cls-1" d="M10.8,87.31a2.82,2.82,0,1,0-4,0,2.81,2.81,0,0,0,4,0Z"/><polygon class="cls-1" points="106.29 46.62 107.35 45.56 139.07 77.28 225.19 77.28 240.69 61.79 241.75 62.85 225.81 78.78 138.45 78.78 106.29 46.62"/><path class="cls-1" d="M104.93,48.19a2.82,2.82,0,1,0,0-4,2.82,2.82,0,0,0,0,4Z"/><polygon class="cls-1" points="111.35 32.62 80 32.62 80 31.12 111.97 31.12 128.23 47.39 157.49 47.39 157.49 48.89 127.61 48.89 111.35 32.62"/><circle class="cls-1" cx="80.14" cy="31.87" r="2.82"/><polygon class="cls-1" points="68.63 56.61 49.45 56.61 49.45 55.11 69.26 55.11 88.7 74.55 87.63 75.61 68.63 56.61"/><path class="cls-1" d="M49.59,58.68a2.82,2.82,0,1,0-2.82-2.82,2.82,2.82,0,0,0,2.82,2.82Z"/><polygon class="cls-1" points="267.83 91.82 279.07 80.57 356.49 80.57 356.49 82.07 279.7 82.07 268.89 92.88 267.83 91.82"/><circle class="cls-1" cx="268.46" cy="92.25" r="2.82"/><polygon class="cls-1" points="184.48 89.11 243.59 89.11 270.97 61.73 272.03 62.8 244.21 90.61 184.48 90.61 184.48 89.11"/><path class="cls-1" d="M184.62,92.68a2.82,2.82,0,1,0-2.82-2.82,2.82,2.82,0,0,0,2.82,2.82Z"/></g></g></g></g></svg>